<svg xmlns="http://www.w3.org/2000/svg" version="1.1" xmlns:xlink="http://www.w3.org/1999/xlink" xmlns:svgjs="http://svgjs.dev/svgjs" width="128" height="128" viewBox="0 0 128 128"><g transform="matrix(0.8046875,0,0,0.8046875,12.760752631578946,17.732204955334296)"><svg viewBox="0 0 95 86" data-background-color="#ffffff" preserveAspectRatio="xMidYMid meet" height="115" width="128" xmlns="http://www.w3.org/2000/svg" xmlns:xlink="http://www.w3.org/1999/xlink"><g id="tight-bounds" transform="matrix(1,0,0,1,-0.24049999999999727,-0.001613520330934648)"><svg viewBox="0 0 95.481 86.00322704066188" height="86.00322704066188" width="95.481"><g><svg viewBox="0 0 95.481 86.00322704066188" height="86.00322704066188" width="95.481"><g><svg viewBox="0 0 95.481 86.00322704066188" height="86.00322704066188" width="95.481"><g id="textblocktransform"><svg viewBox="0 0 95.481 86.00322704066188" height="86.00322704066188" width="95.481" id="textblock"><g><svg viewBox="0 0 95.481 86.00322704066188" height="86.00322704066188" width="95.481"><g><svg viewBox="0 0 95.481 86.00322704066188" height="86.00322704066188" width="95.481"><g><svg xmlns="http://www.w3.org/2000/svg" xmlns:xlink="http://www.w3.org/1999/xlink" version="1.1" x="0" y="0" viewBox="0.4450000000000003 5.364 99.10999999999999 89.27199999999999" style="enable-background:new 0 0 100 100;" xml:space="preserve" height="86.00322704066188" width="95.481" class="icon-icon-0" data-fill-palette-color="accent" id="icon-0"><g fill="#5d9943" data-fill-palette-color="accent"><path d="M15.57 64.387c-8.354 0-15.125 6.771-15.125 15.125 0 8.353 6.771 15.124 15.125 15.124 8.353 0 15.124-6.771 15.124-15.124C30.694 71.158 23.923 64.387 15.57 64.387zM15.57 87.789c-4.565 0-8.278-3.713-8.278-8.277s3.713-8.278 8.278-8.278c4.564 0 8.277 3.714 8.277 8.278S20.135 87.789 15.57 87.789z" fill="#5d9943" data-fill-palette-color="accent"></path><path d="M50 64.387c-8.353 0-15.125 6.771-15.125 15.125 0 8.353 6.772 15.124 15.125 15.124 8.354 0 15.125-6.771 15.125-15.124C65.125 71.158 58.354 64.387 50 64.387zM50 87.789c-4.564 0-8.278-3.713-8.278-8.277s3.714-8.278 8.278-8.278c4.565 0 8.277 3.714 8.277 8.278S54.565 87.789 50 87.789z" fill="#5d9943" data-fill-palette-color="accent"></path><path d="M84.431 64.387c-8.354 0-15.125 6.771-15.125 15.125 0 8.353 6.771 15.124 15.125 15.124 8.352 0 15.124-6.771 15.124-15.124C99.555 71.158 92.782 64.387 84.431 64.387zM84.431 87.789c-4.564 0-8.278-3.713-8.278-8.277s3.714-8.278 8.278-8.278 8.277 3.714 8.277 8.278S88.995 87.789 84.431 87.789z" fill="#5d9943" data-fill-palette-color="accent"></path><path d="M32.785 34.875c-8.354 0-15.125 6.772-15.125 15.125 0 8.354 6.771 15.124 15.125 15.124S47.909 58.354 47.909 50C47.909 41.647 41.139 34.875 32.785 34.875zM32.785 58.277c-4.564 0-8.278-3.713-8.278-8.277s3.714-8.278 8.278-8.278 8.277 3.713 8.277 8.278S37.35 58.277 32.785 58.277z" fill="#5d9943" data-fill-palette-color="accent"></path><path d="M67.215 34.875c-8.353 0-15.125 6.772-15.125 15.125 0 8.354 6.772 15.124 15.125 15.124 8.354 0 15.125-6.771 15.125-15.124C82.34 41.647 75.568 34.875 67.215 34.875zM67.215 58.277c-4.564 0-8.277-3.713-8.277-8.277s3.713-8.278 8.277-8.278 8.278 3.713 8.278 8.278S71.779 58.277 67.215 58.277z" fill="#5d9943" data-fill-palette-color="accent"></path><path d="M50 5.364c-8.353 0-15.125 6.771-15.125 15.124S41.647 35.613 50 35.613c8.354 0 15.125-6.772 15.125-15.125S58.354 5.364 50 5.364zM50 28.767c-4.564 0-8.278-3.714-8.278-8.279S45.436 12.21 50 12.21c4.565 0 8.277 3.713 8.277 8.278S54.565 28.767 50 28.767z" fill="#5d9943" data-fill-palette-color="accent"></path></g></svg></g></svg></g></svg></g></svg></g></svg></g></svg></g><defs></defs></svg><rect width="95.481" height="86.00322704066188" fill="none" stroke="none" visibility="hidden"></rect></g></svg></g></svg>