<svg xmlns="http://www.w3.org/2000/svg" width="175" height="175" viewBox="0 0 1042 1042" version="1.1"><path d="M -0 521.001 L -0 1042.002 521.250 1041.751 L 1042.500 1041.500 1042.751 520.750 L 1043.002 0 521.501 0 L 0 0 -0 521.001 M 0.496 521.500 C 0.496 808.050, 0.610 925.126, 0.750 781.668 C 0.890 638.211, 0.890 403.761, 0.750 260.668 C 0.610 117.576, 0.496 234.950, 0.496 521.500 M 473 428.675 C 468.875 431.167, 463.025 434.562, 460 436.220 C 456.975 437.877, 453.955 439.743, 453.288 440.366 C 452.440 441.160, 452.039 446.692, 451.952 458.830 C 451.883 468.362, 451.978 476.264, 452.163 476.391 C 454.171 477.764, 463.767 483.418, 468.500 486.016 C 478.554 491.536, 478 490.311, 478 507.030 L 478 521.750 492.954 530.375 C 501.179 535.119, 508.100 539, 508.334 539 C 508.568 539, 514.205 535.850, 520.860 532 C 527.516 528.150, 533.676 525, 534.550 525 C 535.425 525, 539.371 526.948, 543.320 529.329 C 547.269 531.710, 552.805 534.900, 555.622 536.418 L 560.743 539.178 575.893 530.430 L 591.044 521.682 590.772 503.772 L 590.500 485.863 578 478.660 L 565.500 471.456 565 456.155 C 564.552 442.447, 564.300 440.732, 562.579 439.677 C 558.853 437.394, 555.395 435.398, 545.074 429.574 L 534.648 423.690 530.074 426.075 C 527.558 427.387, 521.900 430.606, 517.500 433.228 C 509.433 438.036, 507.188 438.755, 505.450 437.089 C 503.502 435.223, 483.173 424.003, 481.862 424.071 C 481.113 424.111, 477.125 426.182, 473 428.675 M 477.928 436.550 C 475.493 437.919, 472.022 439.796, 470.216 440.721 C 468.409 441.646, 467.059 443.037, 467.216 443.812 C 467.372 444.586, 470.806 447.036, 474.847 449.256 L 482.194 453.292 488.568 449.896 C 492.073 448.028, 495.742 445.915, 496.721 445.200 C 498.398 443.974, 498.367 443.799, 496.177 442.141 C 494.900 441.173, 491.267 438.959, 488.105 437.221 L 482.356 434.060 477.928 436.550 M 531.874 435.394 C 530.568 436.073, 520.725 441.709, 510 447.918 C 499.275 454.128, 488.665 460.259, 486.423 461.545 L 482.346 463.882 472.923 458.447 C 467.740 455.458, 462.938 453.010, 462.250 453.006 C 461.342 453.002, 461 455.463, 461 461.998 L 461 470.996 465.750 473.987 C 468.363 475.632, 473.230 478.408, 476.566 480.155 L 482.633 483.331 508.161 468.666 C 522.201 460.600, 534.096 454.005, 534.594 454.011 C 535.093 454.017, 539.709 456.489, 544.854 459.506 C 549.998 462.522, 554.611 464.740, 555.104 464.436 C 556.174 463.774, 556.289 447.967, 555.235 446.426 C 554.486 445.331, 538.833 435.917, 535.874 434.782 C 534.980 434.439, 533.180 434.714, 531.874 435.394 M 526.588 468.607 C 522.345 471.091, 519.040 473.619, 519.242 474.227 C 519.445 474.834, 522.975 477.142, 527.088 479.355 L 534.566 483.380 542.283 479.120 C 546.527 476.777, 550 474.474, 550 474.002 C 550 473.531, 547.413 471.594, 544.250 469.698 C 533.936 463.515, 535.157 463.591, 526.588 468.607 M 500.071 483.750 C 496.539 485.813, 493.498 487.969, 493.311 488.541 C 492.929 489.718, 506.228 498, 508.500 498 C 510.294 498, 524 489.903, 524 488.843 C 524 487.678, 510.387 480, 508.321 480 C 507.315 480, 503.602 481.688, 500.071 483.750 M 546 487.376 C 509.028 508.889, 508.510 509.166, 507 508.238 C 506.175 507.732, 502.800 505.831, 499.500 504.013 C 496.200 502.196, 492.612 500.100, 491.527 499.355 C 487.532 496.611, 487 497.492, 487 506.845 C 487 514.019, 487.331 515.979, 488.750 517.221 C 491.648 519.757, 506.810 528, 508.576 528 C 509.482 528, 513.885 525.822, 518.361 523.160 C 535.278 513.101, 559.872 499, 560.500 499 C 560.860 499, 565.301 501.475, 570.371 504.500 C 575.440 507.525, 580.130 510, 580.794 510 C 581.646 510, 582 507.371, 582 501.048 L 582 492.096 577.750 489.196 C 570.931 484.543, 562.257 479.996, 560.304 480.051 C 559.312 480.079, 552.875 483.375, 546 487.376 M 552.052 513.931 C 548.505 515.998, 545.451 518.148, 545.264 518.708 C 544.861 519.917, 558.115 528, 560.500 528 C 562.878 528, 576.140 519.919, 575.738 518.714 C 575.250 517.250, 562.134 509.984, 560.163 510.086 C 559.249 510.134, 555.598 511.864, 552.052 513.931 M 344.757 569.062 C 332.132 572.111, 324.123 584.819, 327.017 597.211 C 330.920 613.926, 350.394 622.203, 364.148 612.994 C 369.773 609.228, 372.716 604.746, 374.105 597.833 C 377.508 580.888, 361.356 565.053, 344.757 569.062 M 638.226 570.750 C 637.176 572.263, 635.635 574.850, 634.803 576.500 C 627.287 591.399, 620.940 604.163, 619.458 607.360 C 618.304 609.849, 616.661 611.571, 614.834 612.208 C 613.275 612.751, 612 613.571, 612 614.030 C 612 615.270, 614.755 615.705, 621.915 615.597 C 628.611 615.496, 631.197 613.768, 626.441 612.574 C 624.007 611.964, 623.849 611.617, 624.479 608.260 C 624.856 606.253, 626.259 602.448, 627.599 599.805 L 630.034 595 638.552 595 L 647.071 595 649.138 599.750 C 650.275 602.362, 651.437 606.140, 651.720 608.145 C 652.158 611.246, 651.911 611.894, 650.063 612.480 C 648.868 612.859, 648.065 613.694, 648.279 614.335 C 648.827 615.973, 664.205 615.886, 664.753 614.242 C 664.975 613.575, 664.094 612.544, 662.795 611.953 C 661.496 611.361, 659.926 609.667, 659.305 608.188 C 658.685 606.710, 655.878 599.969, 653.067 593.208 C 646.218 576.731, 642.037 568, 640.996 568 C 640.523 568, 639.277 569.237, 638.226 570.750 M 684.395 570.083 C 675.518 572.196, 667.006 583.431, 667.032 593 C 667.074 608.613, 683.844 620.803, 698 615.510 C 700.475 614.584, 704.071 613.234, 705.991 612.509 C 709.647 611.130, 710.721 609.104, 710.900 603.250 C 711.014 599.531, 709.468 598.899, 708.455 602.250 C 707.587 605.124, 703.280 609.771, 699.800 611.589 C 696.456 613.336, 687.740 613.429, 684.736 611.750 C 677.189 607.532, 673.641 601.218, 673.636 592 C 673.634 587.916, 674.240 584.347, 675.265 582.398 C 677.252 578.624, 683.433 573.039, 685.785 572.894 C 686.728 572.836, 689.075 572.679, 691 572.546 C 697.796 572.076, 703.888 576.038, 705.925 582.250 C 708.363 589.684, 709.762 585.836, 708.354 575.568 C 707.759 571.223, 707.524 570.903, 705.334 571.452 C 704.028 571.780, 702.116 571.597, 701.085 571.045 C 698.233 569.519, 689.001 568.987, 684.395 570.083 M 294 570.640 C 289.250 571.510, 288.314 572.226, 291 572.933 L 293.500 573.590 293.500 593 L 293.500 612.410 291.191 612.955 C 286.051 614.168, 289.543 615.376, 298.498 615.484 C 305.681 615.570, 308 615.281, 308 614.299 C 308 613.456, 306.633 613, 304.107 613 C 299.492 613, 299 612.134, 299 604 C 299 595.323, 299.257 595, 306.147 595 C 312.908 595, 319.014 592.434, 321.584 588.513 C 325.235 582.940, 322.834 575.285, 316.410 572.021 C 313.538 570.562, 299.235 569.680, 294 570.640 M 378 571.299 C 378 571.970, 378.856 573.053, 379.902 573.707 C 380.948 574.360, 382.578 577.281, 383.524 580.197 C 387.185 591.485, 395.322 613.561, 396.260 614.750 C 396.801 615.438, 397.605 616, 398.045 616 C 398.485 616, 400.518 611.612, 402.563 606.250 C 407.975 592.057, 408.055 592.036, 412.557 603.662 C 417.031 615.219, 418.351 617.134, 420.346 614.964 C 421.781 613.404, 430.419 593.490, 433.995 583.500 C 437.101 574.821, 438.015 573.229, 440.225 572.652 C 444.156 571.623, 440.892 570.250, 434.518 570.250 C 429.654 570.250, 428 570.599, 428 571.625 C 428 572.381, 428.900 573, 430 573 C 433.893 573, 432.407 580.566, 425.041 598.250 C 420.209 609.852, 420.055 609.722, 411.413 586.789 C 408.986 580.348, 407 574.825, 407 574.514 C 407 574.204, 408.187 573.499, 409.639 572.947 C 413.529 571.468, 411.772 570.628, 404.435 570.459 C 397.531 570.300, 395.274 571.393, 399.327 572.934 C 401.220 573.654, 402.338 575.543, 404.267 581.279 L 406.760 588.694 403.541 597.043 C 401.771 601.635, 399.856 605.548, 399.285 605.738 C 398.091 606.136, 398.241 606.477, 392.412 590.130 C 387.355 575.951, 387.043 573.483, 390.206 572.656 C 393.933 571.682, 391.245 570.594, 384.457 570.330 C 379.904 570.152, 378 570.438, 378 571.299 M 444.241 571.222 C 444.465 571.895, 445.740 572.702, 447.074 573.017 L 449.500 573.589 449.772 592.373 L 450.045 611.157 447.022 612.298 C 445.360 612.925, 444 613.919, 444 614.507 C 444 615.699, 475.944 615.317, 477.240 614.109 C 477.648 613.730, 478.242 611.187, 478.562 608.460 L 479.143 603.500 477.123 606 C 472.249 612.032, 472.313 612, 465.082 612 C 454.724 612, 455 612.290, 455 601.412 C 455 590.700, 455.104 590.589, 464.566 591.188 C 469.115 591.476, 469.525 591.715, 469.816 594.250 C 469.998 595.824, 470.746 597, 471.566 597 C 472.675 597, 473 595.411, 473 590 C 473 584.596, 472.674 583, 471.570 583 C 470.783 583, 469.995 584.013, 469.820 585.250 C 469.523 587.339, 468.998 587.500, 462.500 587.500 L 455.500 587.500 455.198 581.666 C 454.792 573.851, 455.662 573, 464.051 573 C 471.042 573, 472.745 573.787, 475.042 578.078 C 476.713 581.201, 478.235 580.380, 477.505 576.750 C 476.034 569.442, 477.494 570, 459.849 570 C 447.674 570, 443.931 570.293, 444.241 571.222 M 490.250 570.743 C 486.262 570.932, 483 571.518, 483 572.044 C 483 572.570, 483.649 573, 484.443 573 C 485.237 573, 486.587 574, 487.443 575.223 C 488.697 577.012, 489 580.601, 489 593.641 C 489 602.548, 488.727 610.548, 488.393 611.418 C 488.059 612.288, 486.672 613, 485.310 613 C 483.839 613, 482.995 613.484, 483.230 614.190 C 483.761 615.783, 500.218 615.846, 500.747 614.258 C 500.961 613.616, 499.706 613, 497.811 612.818 L 494.500 612.500 494.214 603.329 C 493.949 594.850, 494.081 594.109, 495.964 593.512 C 499.174 592.492, 501.877 593.859, 504.501 597.829 C 515.865 615.021, 519.969 618.631, 523.800 614.800 C 525.202 613.398, 525.421 611.622, 524.090 612.444 C 522.159 613.638, 519.628 611.449, 515.150 604.717 C 506.714 592.031, 507.189 593.688, 510.804 589.571 C 517.232 582.249, 513.871 573.210, 503.927 571.078 C 501.163 570.485, 498.586 570.089, 498.201 570.199 C 497.815 570.308, 494.238 570.553, 490.250 570.743 M 540.274 572.100 C 531.665 577.614, 535.281 590.421, 546.034 592.498 C 551.760 593.604, 556.288 596.304, 558.344 599.838 C 560.177 602.988, 560.195 603.368, 558.654 606.599 C 557.690 608.620, 555.614 610.693, 553.583 611.662 C 550.626 613.072, 549.696 613.117, 546.951 611.980 C 542.669 610.206, 540.003 607.176, 539.985 604.061 C 539.976 602.653, 539.545 600.829, 539.026 600.008 C 537.495 597.586, 536.218 599.980, 535.843 605.975 C 535.541 610.793, 535.740 611.498, 537.496 611.846 C 538.593 612.063, 540.566 613.087, 541.880 614.121 C 543.513 615.405, 545.889 615.999, 549.385 615.996 C 558.544 615.990, 564 610.610, 564 601.584 C 564 597.958, 563.388 596.372, 560.889 593.526 C 559.177 591.577, 556.590 589.708, 555.139 589.374 C 544.257 586.864, 540 583.957, 540 579.035 C 540 576.161, 543.509 573, 546.699 573 C 548.653 573, 550.723 574.411, 554.199 578.114 L 559 583.227 559 576.635 C 559 570.060, 558.994 570.046, 556.626 571.124 C 554.917 571.903, 553.677 571.897, 552.192 571.103 C 548.998 569.393, 543.825 569.826, 540.274 572.100 M 568.656 570.750 C 568.402 571.163, 567.875 573.638, 567.484 576.250 C 566.616 582.050, 568.242 582.657, 570.721 577.459 L 572.410 573.918 578.955 574.209 L 585.500 574.500 585.500 592.936 L 585.500 611.373 582.182 612.233 C 580.297 612.721, 579.038 613.612, 579.266 614.296 C 579.541 615.121, 582.632 615.500, 589.084 615.500 C 596.787 615.500, 598.500 615.227, 598.500 614 C 598.500 613.107, 597.387 612.372, 595.750 612.184 L 593 611.867 592.850 594.434 C 592.768 584.845, 592.655 576.438, 592.600 575.750 C 592.532 574.901, 594.508 574.404, 598.755 574.202 C 604.976 573.906, 605.023 573.924, 607.104 577.452 C 610.061 582.464, 611.377 582, 610.516 576.250 C 610.125 573.638, 609.598 571.163, 609.344 570.750 C 609.090 570.337, 599.935 570, 589 570 C 578.065 570, 568.910 570.337, 568.656 570.750 M 713.241 571.222 C 713.465 571.895, 714.740 572.702, 716.074 573.017 L 718.500 573.589 718.771 592.665 L 719.042 611.742 715.935 612.363 C 714.062 612.738, 712.995 613.484, 713.247 614.242 C 713.826 615.979, 729.713 616.051, 731.146 614.324 C 731.913 613.400, 731.451 612.905, 729.338 612.387 C 727.777 612.005, 726.169 611.199, 725.765 610.596 C 724.701 609.008, 724.832 596.222, 725.919 595.550 C 726.981 594.894, 727.310 595.203, 736 605 C 743.924 613.934, 744.957 614.990, 745.821 615.038 C 746.195 615.059, 748.128 615.312, 750.119 615.602 C 752.779 615.988, 753.891 615.727, 754.317 614.615 C 754.688 613.650, 754.152 612.866, 752.838 612.449 C 747.820 610.856, 730.360 591.966, 731.698 589.576 C 733.875 585.686, 746.528 573.920, 749.310 573.199 C 750.990 572.764, 752.545 571.866, 752.765 571.204 C 753.059 570.324, 750.788 570.009, 744.333 570.033 C 735.559 570.066, 735.515 570.079, 737.750 571.944 C 738.987 572.976, 740 574.232, 740 574.736 C 740 576.374, 726.863 591.033, 725.918 590.449 C 724.832 589.778, 724.701 576.009, 725.765 574.366 C 726.169 573.742, 727.363 573.067, 728.417 572.866 C 729.472 572.665, 730.522 571.938, 730.750 571.250 C 731.063 570.311, 728.889 570, 722 570 C 715.221 570, 712.939 570.318, 713.241 571.222 M 344.243 571.850 C 340.492 572.930, 335.079 577.876, 333.493 581.670 C 330.326 589.250, 332.492 602.203, 337.822 607.565 C 342.533 612.304, 344.875 613.333, 350.941 613.333 C 357.888 613.333, 362.767 610.730, 366.186 605.200 C 369.329 600.115, 369.385 588.386, 366.295 582.500 C 361.623 573.602, 352.856 569.368, 344.243 571.850 M 300.035 573.934 C 298.752 576.332, 298.693 590.967, 299.959 592.968 C 300.742 594.206, 301.757 594.254, 306.433 593.273 C 312.789 591.940, 316.426 589.625, 318.010 585.904 C 320.393 580.306, 316.538 574.822, 309 573.085 C 302.607 571.613, 301.207 571.745, 300.035 573.934 M 494.765 573.378 C 493.777 574.366, 493.478 576.843, 493.710 582.128 C 493.887 586.183, 494.236 590.063, 494.485 590.750 C 495.574 593.760, 505.903 591.324, 508.434 587.460 C 511.864 582.226, 509.472 576.206, 502.920 573.585 C 498.064 571.642, 496.540 571.603, 494.765 573.378 M 635.139 583.890 C 633.413 587.129, 632 590.279, 632 590.890 C 632 591.589, 634.404 592, 638.500 592 C 643.555 592, 645 591.673, 645 590.529 C 645 588.284, 640.235 578, 639.194 578 C 638.691 578, 636.866 580.650, 635.139 583.890" stroke="none" fill="#ffffff" fill-rule="evenodd"/><path d="M 473 428.675 C 468.875 431.167, 463.025 434.562, 460 436.220 C 456.975 437.877, 453.955 439.743, 453.288 440.366 C 452.440 441.160, 452.039 446.692, 451.952 458.830 C 451.883 468.362, 451.978 476.264, 452.163 476.391 C 454.171 477.764, 463.767 483.418, 468.500 486.016 C 478.554 491.536, 478 490.311, 478 507.030 L 478 521.750 492.954 530.375 C 501.179 535.119, 508.100 539, 508.334 539 C 508.568 539, 514.205 535.850, 520.860 532 C 527.516 528.150, 533.676 525, 534.550 525 C 535.425 525, 539.371 526.948, 543.320 529.329 C 547.269 531.710, 552.805 534.900, 555.622 536.418 L 560.743 539.178 575.893 530.430 L 591.044 521.682 590.772 503.772 L 590.500 485.863 578 478.660 L 565.500 471.456 565 456.155 C 564.552 442.447, 564.300 440.732, 562.579 439.677 C 558.853 437.394, 555.395 435.398, 545.074 429.574 L 534.648 423.690 530.074 426.075 C 527.558 427.387, 521.900 430.606, 517.500 433.228 C 509.433 438.036, 507.188 438.755, 505.450 437.089 C 503.502 435.223, 483.173 424.003, 481.862 424.071 C 481.113 424.111, 477.125 426.182, 473 428.675 M 477.928 436.550 C 475.493 437.919, 472.022 439.796, 470.216 440.721 C 468.409 441.646, 467.059 443.037, 467.216 443.812 C 467.372 444.586, 470.806 447.036, 474.847 449.256 L 482.194 453.292 488.568 449.896 C 492.073 448.028, 495.742 445.915, 496.721 445.200 C 498.398 443.974, 498.367 443.799, 496.177 442.141 C 494.900 441.173, 491.267 438.959, 488.105 437.221 L 482.356 434.060 477.928 436.550 M 531.874 435.394 C 530.568 436.073, 520.725 441.709, 510 447.918 C 499.275 454.128, 488.665 460.259, 486.423 461.545 L 482.346 463.882 472.923 458.447 C 467.740 455.458, 462.938 453.010, 462.250 453.006 C 461.342 453.002, 461 455.463, 461 461.998 L 461 470.996 465.750 473.987 C 468.363 475.632, 473.230 478.408, 476.566 480.155 L 482.633 483.331 508.161 468.666 C 522.201 460.600, 534.096 454.005, 534.594 454.011 C 535.093 454.017, 539.709 456.489, 544.854 459.506 C 549.998 462.522, 554.611 464.740, 555.104 464.436 C 556.174 463.774, 556.289 447.967, 555.235 446.426 C 554.486 445.331, 538.833 435.917, 535.874 434.782 C 534.980 434.439, 533.180 434.714, 531.874 435.394 M 526.588 468.607 C 522.345 471.091, 519.040 473.619, 519.242 474.227 C 519.445 474.834, 522.975 477.142, 527.088 479.355 L 534.566 483.380 542.283 479.120 C 546.527 476.777, 550 474.474, 550 474.002 C 550 473.531, 547.413 471.594, 544.250 469.698 C 533.936 463.515, 535.157 463.591, 526.588 468.607 M 500.071 483.750 C 496.539 485.813, 493.498 487.969, 493.311 488.541 C 492.929 489.718, 506.228 498, 508.500 498 C 510.294 498, 524 489.903, 524 488.843 C 524 487.678, 510.387 480, 508.321 480 C 507.315 480, 503.602 481.688, 500.071 483.750 M 546 487.376 C 509.028 508.889, 508.510 509.166, 507 508.238 C 506.175 507.732, 502.800 505.831, 499.500 504.013 C 496.200 502.196, 492.612 500.100, 491.527 499.355 C 487.532 496.611, 487 497.492, 487 506.845 C 487 514.019, 487.331 515.979, 488.750 517.221 C 491.648 519.757, 506.810 528, 508.576 528 C 509.482 528, 513.885 525.822, 518.361 523.160 C 535.278 513.101, 559.872 499, 560.500 499 C 560.860 499, 565.301 501.475, 570.371 504.500 C 575.440 507.525, 580.130 510, 580.794 510 C 581.646 510, 582 507.371, 582 501.048 L 582 492.096 577.750 489.196 C 570.931 484.543, 562.257 479.996, 560.304 480.051 C 559.312 480.079, 552.875 483.375, 546 487.376 M 552.052 513.931 C 548.505 515.998, 545.451 518.148, 545.264 518.708 C 544.861 519.917, 558.115 528, 560.500 528 C 562.878 528, 576.140 519.919, 575.738 518.714 C 575.250 517.250, 562.134 509.984, 560.163 510.086 C 559.249 510.134, 555.598 511.864, 552.052 513.931 M 344.757 569.062 C 332.132 572.111, 324.123 584.819, 327.017 597.211 C 330.920 613.926, 350.394 622.203, 364.148 612.994 C 369.773 609.228, 372.716 604.746, 374.105 597.833 C 377.508 580.888, 361.356 565.053, 344.757 569.062 M 638.226 570.750 C 637.176 572.263, 635.635 574.850, 634.803 576.500 C 627.287 591.399, 620.940 604.163, 619.458 607.360 C 618.304 609.849, 616.661 611.571, 614.834 612.208 C 613.275 612.751, 612 613.571, 612 614.030 C 612 615.270, 614.755 615.705, 621.915 615.597 C 628.611 615.496, 631.197 613.768, 626.441 612.574 C 624.007 611.964, 623.849 611.617, 624.479 608.260 C 624.856 606.253, 626.259 602.448, 627.599 599.805 L 630.034 595 638.552 595 L 647.071 595 649.138 599.750 C 650.275 602.362, 651.437 606.140, 651.720 608.145 C 652.158 611.246, 651.911 611.894, 650.063 612.480 C 648.868 612.859, 648.065 613.694, 648.279 614.335 C 648.827 615.973, 664.205 615.886, 664.753 614.242 C 664.975 613.575, 664.094 612.544, 662.795 611.953 C 661.496 611.361, 659.926 609.667, 659.305 608.188 C 658.685 606.710, 655.878 599.969, 653.067 593.208 C 646.218 576.731, 642.037 568, 640.996 568 C 640.523 568, 639.277 569.237, 638.226 570.750 M 684.395 570.083 C 675.518 572.196, 667.006 583.431, 667.032 593 C 667.074 608.613, 683.844 620.803, 698 615.510 C 700.475 614.584, 704.071 613.234, 705.991 612.509 C 709.647 611.130, 710.721 609.104, 710.900 603.250 C 711.014 599.531, 709.468 598.899, 708.455 602.250 C 707.587 605.124, 703.280 609.771, 699.800 611.589 C 696.456 613.336, 687.740 613.429, 684.736 611.750 C 677.189 607.532, 673.641 601.218, 673.636 592 C 673.634 587.916, 674.240 584.347, 675.265 582.398 C 677.252 578.624, 683.433 573.039, 685.785 572.894 C 686.728 572.836, 689.075 572.679, 691 572.546 C 697.796 572.076, 703.888 576.038, 705.925 582.250 C 708.363 589.684, 709.762 585.836, 708.354 575.568 C 707.759 571.223, 707.524 570.903, 705.334 571.452 C 704.028 571.780, 702.116 571.597, 701.085 571.045 C 698.233 569.519, 689.001 568.987, 684.395 570.083 M 294 570.640 C 289.250 571.510, 288.314 572.226, 291 572.933 L 293.500 573.590 293.500 593 L 293.500 612.410 291.191 612.955 C 286.051 614.168, 289.543 615.376, 298.498 615.484 C 305.681 615.570, 308 615.281, 308 614.299 C 308 613.456, 306.633 613, 304.107 613 C 299.492 613, 299 612.134, 299 604 C 299 595.323, 299.257 595, 306.147 595 C 312.908 595, 319.014 592.434, 321.584 588.513 C 325.235 582.940, 322.834 575.285, 316.410 572.021 C 313.538 570.562, 299.235 569.680, 294 570.640 M 378 571.299 C 378 571.970, 378.856 573.053, 379.902 573.707 C 380.948 574.360, 382.578 577.281, 383.524 580.197 C 387.185 591.485, 395.322 613.561, 396.260 614.750 C 396.801 615.438, 397.605 616, 398.045 616 C 398.485 616, 400.518 611.612, 402.563 606.250 C 407.975 592.057, 408.055 592.036, 412.557 603.662 C 417.031 615.219, 418.351 617.134, 420.346 614.964 C 421.781 613.404, 430.419 593.490, 433.995 583.500 C 437.101 574.821, 438.015 573.229, 440.225 572.652 C 444.156 571.623, 440.892 570.250, 434.518 570.250 C 429.654 570.250, 428 570.599, 428 571.625 C 428 572.381, 428.900 573, 430 573 C 433.893 573, 432.407 580.566, 425.041 598.250 C 420.209 609.852, 420.055 609.722, 411.413 586.789 C 408.986 580.348, 407 574.825, 407 574.514 C 407 574.204, 408.187 573.499, 409.639 572.947 C 413.529 571.468, 411.772 570.628, 404.435 570.459 C 397.531 570.300, 395.274 571.393, 399.327 572.934 C 401.220 573.654, 402.338 575.543, 404.267 581.279 L 406.760 588.694 403.541 597.043 C 401.771 601.635, 399.856 605.548, 399.285 605.738 C 398.091 606.136, 398.241 606.477, 392.412 590.130 C 387.355 575.951, 387.043 573.483, 390.206 572.656 C 393.933 571.682, 391.245 570.594, 384.457 570.330 C 379.904 570.152, 378 570.438, 378 571.299 M 444.241 571.222 C 444.465 571.895, 445.740 572.702, 447.074 573.017 L 449.500 573.589 449.772 592.373 L 450.045 611.157 447.022 612.298 C 445.360 612.925, 444 613.919, 444 614.507 C 444 615.699, 475.944 615.317, 477.240 614.109 C 477.648 613.730, 478.242 611.187, 478.562 608.460 L 479.143 603.500 477.123 606 C 472.249 612.032, 472.313 612, 465.082 612 C 454.724 612, 455 612.290, 455 601.412 C 455 590.700, 455.104 590.589, 464.566 591.188 C 469.115 591.476, 469.525 591.715, 469.816 594.250 C 469.998 595.824, 470.746 597, 471.566 597 C 472.675 597, 473 595.411, 473 590 C 473 584.596, 472.674 583, 471.570 583 C 470.783 583, 469.995 584.013, 469.820 585.250 C 469.523 587.339, 468.998 587.500, 462.500 587.500 L 455.500 587.500 455.198 581.666 C 454.792 573.851, 455.662 573, 464.051 573 C 471.042 573, 472.745 573.787, 475.042 578.078 C 476.713 581.201, 478.235 580.380, 477.505 576.750 C 476.034 569.442, 477.494 570, 459.849 570 C 447.674 570, 443.931 570.293, 444.241 571.222 M 490.250 570.743 C 486.262 570.932, 483 571.518, 483 572.044 C 483 572.570, 483.649 573, 484.443 573 C 485.237 573, 486.587 574, 487.443 575.223 C 488.697 577.012, 489 580.601, 489 593.641 C 489 602.548, 488.727 610.548, 488.393 611.418 C 488.059 612.288, 486.672 613, 485.310 613 C 483.839 613, 482.995 613.484, 483.230 614.190 C 483.761 615.783, 500.218 615.846, 500.747 614.258 C 500.961 613.616, 499.706 613, 497.811 612.818 L 494.500 612.500 494.214 603.329 C 493.949 594.850, 494.081 594.109, 495.964 593.512 C 499.174 592.492, 501.877 593.859, 504.501 597.829 C 515.865 615.021, 519.969 618.631, 523.800 614.800 C 525.202 613.398, 525.421 611.622, 524.090 612.444 C 522.159 613.638, 519.628 611.449, 515.150 604.717 C 506.714 592.031, 507.189 593.688, 510.804 589.571 C 517.232 582.249, 513.871 573.210, 503.927 571.078 C 501.163 570.485, 498.586 570.089, 498.201 570.199 C 497.815 570.308, 494.238 570.553, 490.250 570.743 M 540.274 572.100 C 531.665 577.614, 535.281 590.421, 546.034 592.498 C 551.760 593.604, 556.288 596.304, 558.344 599.838 C 560.177 602.988, 560.195 603.368, 558.654 606.599 C 557.690 608.620, 555.614 610.693, 553.583 611.662 C 550.626 613.072, 549.696 613.117, 546.951 611.980 C 542.669 610.206, 540.003 607.176, 539.985 604.061 C 539.976 602.653, 539.545 600.829, 539.026 600.008 C 537.495 597.586, 536.218 599.980, 535.843 605.975 C 535.541 610.793, 535.740 611.498, 537.496 611.846 C 538.593 612.063, 540.566 613.087, 541.880 614.121 C 543.513 615.405, 545.889 615.999, 549.385 615.996 C 558.544 615.990, 564 610.610, 564 601.584 C 564 597.958, 563.388 596.372, 560.889 593.526 C 559.177 591.577, 556.590 589.708, 555.139 589.374 C 544.257 586.864, 540 583.957, 540 579.035 C 540 576.161, 543.509 573, 546.699 573 C 548.653 573, 550.723 574.411, 554.199 578.114 L 559 583.227 559 576.635 C 559 570.060, 558.994 570.046, 556.626 571.124 C 554.917 571.903, 553.677 571.897, 552.192 571.103 C 548.998 569.393, 543.825 569.826, 540.274 572.100 M 568.656 570.750 C 568.402 571.163, 567.875 573.638, 567.484 576.250 C 566.616 582.050, 568.242 582.657, 570.721 577.459 L 572.410 573.918 578.955 574.209 L 585.500 574.500 585.500 592.936 L 585.500 611.373 582.182 612.233 C 580.297 612.721, 579.038 613.612, 579.266 614.296 C 579.541 615.121, 582.632 615.500, 589.084 615.500 C 596.787 615.500, 598.500 615.227, 598.500 614 C 598.500 613.107, 597.387 612.372, 595.750 612.184 L 593 611.867 592.850 594.434 C 592.768 584.845, 592.655 576.438, 592.600 575.750 C 592.532 574.901, 594.508 574.404, 598.755 574.202 C 604.976 573.906, 605.023 573.924, 607.104 577.452 C 610.061 582.464, 611.377 582, 610.516 576.250 C 610.125 573.638, 609.598 571.163, 609.344 570.750 C 609.090 570.337, 599.935 570, 589 570 C 578.065 570, 568.910 570.337, 568.656 570.750 M 713.241 571.222 C 713.465 571.895, 714.740 572.702, 716.074 573.017 L 718.500 573.589 718.771 592.665 L 719.042 611.742 715.935 612.363 C 714.062 612.738, 712.995 613.484, 713.247 614.242 C 713.826 615.979, 729.713 616.051, 731.146 614.324 C 731.913 613.400, 731.451 612.905, 729.338 612.387 C 727.777 612.005, 726.169 611.199, 725.765 610.596 C 724.701 609.008, 724.832 596.222, 725.919 595.550 C 726.981 594.894, 727.310 595.203, 736 605 C 743.924 613.934, 744.957 614.990, 745.821 615.038 C 746.195 615.059, 748.128 615.312, 750.119 615.602 C 752.779 615.988, 753.891 615.727, 754.317 614.615 C 754.688 613.650, 754.152 612.866, 752.838 612.449 C 747.820 610.856, 730.360 591.966, 731.698 589.576 C 733.875 585.686, 746.528 573.920, 749.310 573.199 C 750.990 572.764, 752.545 571.866, 752.765 571.204 C 753.059 570.324, 750.788 570.009, 744.333 570.033 C 735.559 570.066, 735.515 570.079, 737.750 571.944 C 738.987 572.976, 740 574.232, 740 574.736 C 740 576.374, 726.863 591.033, 725.918 590.449 C 724.832 589.778, 724.701 576.009, 725.765 574.366 C 726.169 573.742, 727.363 573.067, 728.417 572.866 C 729.472 572.665, 730.522 571.938, 730.750 571.250 C 731.063 570.311, 728.889 570, 722 570 C 715.221 570, 712.939 570.318, 713.241 571.222 M 344.243 571.850 C 340.492 572.930, 335.079 577.876, 333.493 581.670 C 330.326 589.250, 332.492 602.203, 337.822 607.565 C 342.533 612.304, 344.875 613.333, 350.941 613.333 C 357.888 613.333, 362.767 610.730, 366.186 605.200 C 369.329 600.115, 369.385 588.386, 366.295 582.500 C 361.623 573.602, 352.856 569.368, 344.243 571.850 M 300.035 573.934 C 298.752 576.332, 298.693 590.967, 299.959 592.968 C 300.742 594.206, 301.757 594.254, 306.433 593.273 C 312.789 591.940, 316.426 589.625, 318.010 585.904 C 320.393 580.306, 316.538 574.822, 309 573.085 C 302.607 571.613, 301.207 571.745, 300.035 573.934 M 494.765 573.378 C 493.777 574.366, 493.478 576.843, 493.710 582.128 C 493.887 586.183, 494.236 590.063, 494.485 590.750 C 495.574 593.760, 505.903 591.324, 508.434 587.460 C 511.864 582.226, 509.472 576.206, 502.920 573.585 C 498.064 571.642, 496.540 571.603, 494.765 573.378 M 635.139 583.890 C 633.413 587.129, 632 590.279, 632 590.890 C 632 591.589, 634.404 592, 638.500 592 C 643.555 592, 645 591.673, 645 590.529 C 645 588.284, 640.235 578, 639.194 578 C 638.691 578, 636.866 580.650, 635.139 583.890" stroke="none" fill="#276d4b" fill-rule="evenodd"/></svg>