<svg xmlns="http://www.w3.org/2000/svg" width="177" height="175" viewBox="0 0 175 175" version="1.1"><path d="M -0 78.005 L -0 156.011 87.250 155.755 L 174.500 155.500 174.756 77.750 L 175.012 0 87.506 0 L 0 0 -0 78.005 M 0.476 78.500 C 0.476 121.400, 0.599 138.804, 0.750 117.176 C 0.900 95.547, 0.900 60.447, 0.750 39.176 C 0.599 17.904, 0.476 35.600, 0.476 78.500 M 87.507 26.670 C 72.645 35.304, 75.989 35.438, 59.038 25.530 C 53.833 22.489, 48.883 20.008, 48.038 20.019 C 46.505 20.037, 27.873 30.552, 20.750 35.419 L 17 37.981 17 54.299 C 17 65.866, 17.364 71.066, 18.250 72.158 C 18.937 73.005, 24.797 76.763, 31.271 80.510 C 39.167 85.079, 43.202 88.010, 43.528 89.411 C 43.794 90.560, 44.122 97.507, 44.256 104.848 L 44.500 118.196 54 123.695 C 59.225 126.719, 65.916 130.574, 68.870 132.260 L 74.239 135.326 77.870 133.429 C 79.866 132.385, 85.453 129.162, 90.285 126.266 C 95.117 123.370, 99.622 121, 100.296 121 C 100.970 121, 106.912 124.150, 113.500 128 C 120.088 131.850, 125.957 135, 126.543 135 C 127.128 135, 132.083 132.381, 137.554 129.181 C 143.024 125.980, 149.637 122.136, 152.250 120.638 L 157 117.916 157 100.055 L 157 82.195 147.750 76.715 C 142.662 73.701, 137.044 70.499, 135.264 69.599 C 133.485 68.700, 131.795 66.959, 131.508 65.732 C 131.222 64.504, 130.878 57.435, 130.744 50.023 L 130.500 36.545 119.500 30.213 C 113.450 26.731, 106.683 22.820, 104.462 21.523 L 100.425 19.165 87.507 26.670 M 40.081 34.777 C 36.550 36.832, 33.506 38.982, 33.315 39.554 C 32.756 41.232, 47.622 49.086, 49.738 48.231 C 54.285 46.393, 63 40.730, 63 39.613 C 63 38.184, 50.542 30.990, 48.118 31.020 C 47.228 31.030, 43.611 32.721, 40.081 34.777 M 92.795 34.446 C 89.657 36.338, 85.157 38.965, 82.795 40.284 C 77.773 43.088, 52.229 57.854, 49.926 59.284 C 48.314 60.285, 46.688 59.545, 34.206 52.141 C 31.294 50.413, 28.482 49, 27.956 49 C 27.423 49, 27 52.747, 27 57.461 C 27 67.470, 26.906 67.343, 39.523 74.368 L 48.114 79.153 51.807 77.250 C 53.838 76.204, 65.380 69.619, 77.456 62.617 C 92.659 53.802, 100.047 50.046, 101.478 50.405 C 102.614 50.690, 107.314 53.213, 111.922 56.012 C 116.839 58.999, 120.668 60.732, 121.193 60.207 C 121.684 59.716, 121.954 55.533, 121.793 50.912 L 121.500 42.510 112.030 36.755 C 106.821 33.590, 101.646 31.001, 100.530 31.003 C 99.413 31.004, 95.933 32.553, 92.795 34.446 M 95.485 63.106 C 86.074 68.078, 84.738 69.167, 86.227 70.656 C 87.632 72.061, 91.845 74.636, 97.683 77.659 C 100.841 79.294, 100.924 79.273, 107.884 75.138 C 111.743 72.846, 115.161 70.549, 115.479 70.034 C 116.033 69.137, 102.576 61.040, 100.485 61.013 C 99.927 61.006, 97.677 61.948, 95.485 63.106 M 65.750 80.088 C 62.038 82.293, 59 84.445, 59 84.870 C 59 85.295, 62.422 87.601, 66.605 89.995 L 74.210 94.346 80.355 91.020 C 87.782 87.001, 89.009 86.090, 88.970 84.628 C 88.934 83.250, 76.367 75.984, 74.116 76.040 C 73.227 76.062, 69.463 77.884, 65.750 80.088 M 112.500 83.184 C 105.900 87.031, 96.450 92.544, 91.500 95.435 C 86.550 98.326, 80.623 101.724, 78.328 102.986 L 74.156 105.281 64.521 99.640 C 59.223 96.538, 54.446 94, 53.906 94 C 53.315 94, 53.039 97.661, 53.212 103.214 L 53.500 112.429 63 118.146 C 68.225 121.291, 73.175 123.891, 74 123.925 C 75.443 123.983, 78.529 122.304, 100.500 109.509 C 129.325 92.722, 125.673 93.976, 133.008 98.345 C 136.382 100.355, 139.379 102, 139.667 102 C 139.955 102, 141.495 102.928, 143.089 104.063 C 144.682 105.198, 146.439 105.846, 146.993 105.504 C 147.547 105.162, 148 101.078, 148 96.429 L 148 87.975 142.548 84.488 C 139.549 82.569, 136.841 81, 136.528 81 C 136.216 81, 134.178 79.875, 132 78.500 C 129.822 77.125, 127.243 76.043, 126.270 76.095 C 125.296 76.147, 119.100 79.338, 112.500 83.184 M 119 109.520 C 110.221 114.884, 110.238 114.848, 115.029 118.019 C 117.338 119.548, 120.940 121.571, 123.032 122.515 L 126.837 124.230 134.418 120.045 C 138.588 117.743, 142 115.451, 142 114.950 C 142 114.450, 140.088 113.073, 137.750 111.890 C 135.412 110.707, 132.306 108.898, 130.846 107.869 C 127.250 105.337, 125.430 105.590, 119 109.520" stroke="none" fill="#ffffff" fill-rule="evenodd"/><path d="M 87.507 26.670 C 72.645 35.304, 75.989 35.438, 59.038 25.530 C 53.833 22.489, 48.883 20.008, 48.038 20.019 C 46.505 20.037, 27.873 30.552, 20.750 35.419 L 17 37.981 17 54.299 C 17 65.866, 17.364 71.066, 18.250 72.158 C 18.937 73.005, 24.797 76.763, 31.271 80.510 C 39.167 85.079, 43.202 88.010, 43.528 89.411 C 43.794 90.560, 44.122 97.507, 44.256 104.848 L 44.500 118.196 54 123.695 C 59.225 126.719, 65.916 130.574, 68.870 132.260 L 74.239 135.326 77.870 133.429 C 79.866 132.385, 85.453 129.162, 90.285 126.266 C 95.117 123.370, 99.622 121, 100.296 121 C 100.970 121, 106.912 124.150, 113.500 128 C 120.088 131.850, 125.957 135, 126.543 135 C 127.128 135, 132.083 132.381, 137.554 129.181 C 143.024 125.980, 149.637 122.136, 152.250 120.638 L 157 117.916 157 100.055 L 157 82.195 147.750 76.715 C 142.662 73.701, 137.044 70.499, 135.264 69.599 C 133.485 68.700, 131.795 66.959, 131.508 65.732 C 131.222 64.504, 130.878 57.435, 130.744 50.023 L 130.500 36.545 119.500 30.213 C 113.450 26.731, 106.683 22.820, 104.462 21.523 L 100.425 19.165 87.507 26.670 M 40.081 34.777 C 36.550 36.832, 33.506 38.982, 33.315 39.554 C 32.756 41.232, 47.622 49.086, 49.738 48.231 C 54.285 46.393, 63 40.730, 63 39.613 C 63 38.184, 50.542 30.990, 48.118 31.020 C 47.228 31.030, 43.611 32.721, 40.081 34.777 M 92.795 34.446 C 89.657 36.338, 85.157 38.965, 82.795 40.284 C 77.773 43.088, 52.229 57.854, 49.926 59.284 C 48.314 60.285, 46.688 59.545, 34.206 52.141 C 31.294 50.413, 28.482 49, 27.956 49 C 27.423 49, 27 52.747, 27 57.461 C 27 67.470, 26.906 67.343, 39.523 74.368 L 48.114 79.153 51.807 77.250 C 53.838 76.204, 65.380 69.619, 77.456 62.617 C 92.659 53.802, 100.047 50.046, 101.478 50.405 C 102.614 50.690, 107.314 53.213, 111.922 56.012 C 116.839 58.999, 120.668 60.732, 121.193 60.207 C 121.684 59.716, 121.954 55.533, 121.793 50.912 L 121.500 42.510 112.030 36.755 C 106.821 33.590, 101.646 31.001, 100.530 31.003 C 99.413 31.004, 95.933 32.553, 92.795 34.446 M 95.485 63.106 C 86.074 68.078, 84.738 69.167, 86.227 70.656 C 87.632 72.061, 91.845 74.636, 97.683 77.659 C 100.841 79.294, 100.924 79.273, 107.884 75.138 C 111.743 72.846, 115.161 70.549, 115.479 70.034 C 116.033 69.137, 102.576 61.040, 100.485 61.013 C 99.927 61.006, 97.677 61.948, 95.485 63.106 M 65.750 80.088 C 62.038 82.293, 59 84.445, 59 84.870 C 59 85.295, 62.422 87.601, 66.605 89.995 L 74.210 94.346 80.355 91.020 C 87.782 87.001, 89.009 86.090, 88.970 84.628 C 88.934 83.250, 76.367 75.984, 74.116 76.040 C 73.227 76.062, 69.463 77.884, 65.750 80.088 M 112.500 83.184 C 105.900 87.031, 96.450 92.544, 91.500 95.435 C 86.550 98.326, 80.623 101.724, 78.328 102.986 L 74.156 105.281 64.521 99.640 C 59.223 96.538, 54.446 94, 53.906 94 C 53.315 94, 53.039 97.661, 53.212 103.214 L 53.500 112.429 63 118.146 C 68.225 121.291, 73.175 123.891, 74 123.925 C 75.443 123.983, 78.529 122.304, 100.500 109.509 C 129.325 92.722, 125.673 93.976, 133.008 98.345 C 136.382 100.355, 139.379 102, 139.667 102 C 139.955 102, 141.495 102.928, 143.089 104.063 C 144.682 105.198, 146.439 105.846, 146.993 105.504 C 147.547 105.162, 148 101.078, 148 96.429 L 148 87.975 142.548 84.488 C 139.549 82.569, 136.841 81, 136.528 81 C 136.216 81, 134.178 79.875, 132 78.500 C 129.822 77.125, 127.243 76.043, 126.270 76.095 C 125.296 76.147, 119.100 79.338, 112.500 83.184 M 119 109.520 C 110.221 114.884, 110.238 114.848, 115.029 118.019 C 117.338 119.548, 120.940 121.571, 123.032 122.515 L 126.837 124.230 134.418 120.045 C 138.588 117.743, 142 115.451, 142 114.950 C 142 114.450, 140.088 113.073, 137.750 111.890 C 135.412 110.707, 132.306 108.898, 130.846 107.869 C 127.250 105.337, 125.430 105.590, 119 109.520" stroke="none" fill="#217d50" fill-rule="evenodd"/></svg>