<svg xmlns="http://www.w3.org/2000/svg" width="1042" height="1042" viewBox="0 0 1042 1042" version="1.1"><path d="M 569.582 570.925 C 569.406 571.241, 568.950 573.232, 568.568 575.348 C 568.094 577.969, 568.212 578.987, 568.936 578.539 C 569.521 578.178, 570 577.249, 570 576.476 C 570 574.092, 573.764 572.892, 580.272 573.203 L 586.500 573.500 586.500 593 L 586.500 612.500 583 613.118 C 581.052 613.462, 583.935 613.724, 589.500 613.708 C 595 613.693, 597.929 613.490, 596.009 613.259 C 594.089 613.027, 592.183 612.311, 591.774 611.669 C 591.365 611.026, 591.024 602.296, 591.015 592.269 L 591 574.038 593.316 573.457 C 594.590 573.137, 597.838 573.016, 600.533 573.188 C 604.834 573.462, 605.713 573.916, 607.717 576.898 C 609.844 580.064, 609.999 580.132, 609.985 577.898 C 609.977 576.579, 609.401 574.375, 608.706 573 L 607.441 570.500 588.671 570.425 C 578.348 570.384, 569.758 570.609, 569.582 570.925 M 636.055 576.206 C 629.096 589.687, 623.165 601.728, 621.007 606.754 C 619.206 610.947, 618.119 612.190, 615.625 612.914 C 613.146 613.632, 614.154 613.807, 620.500 613.760 C 624.900 613.727, 627.208 613.508, 625.629 613.272 C 622.936 612.870, 622.789 612.609, 623.266 609.054 C 623.545 606.970, 624.869 603.068, 626.206 600.382 L 628.639 595.500 638.265 595.214 C 649.159 594.891, 648.347 594.347, 651.853 604.321 C 654.119 610.769, 653.866 612.681, 650.665 613.305 C 649.474 613.538, 652.100 613.782, 656.500 613.849 C 663.442 613.954, 664.180 613.807, 662.082 612.735 C 660.215 611.782, 657.698 606.826, 651.046 591.007 C 645.604 578.066, 641.852 570.403, 640.865 570.213 C 639.823 570.012, 638.221 572.008, 636.055 576.206 M 681.266 572.605 C 666.814 579.598, 663.502 597.130, 674.497 608.443 C 678.810 612.881, 685.863 616.019, 691.428 615.976 C 693.118 615.963, 697.200 614.840, 700.500 613.481 C 703.800 612.121, 707.063 611.007, 707.750 611.005 C 708.532 611.002, 708.989 609.597, 708.970 607.250 C 708.943 603.934, 708.807 603.732, 707.799 605.500 C 705.865 608.894, 701.715 611.929, 696.750 613.581 C 692.391 615.031, 691.590 615.025, 687.020 613.507 C 673.235 608.928, 667.515 589.029, 676.895 578.285 C 680.457 574.206, 686.686 570.995, 690.985 571.022 C 698.022 571.066, 707 577.414, 707 582.345 C 707 583.190, 707.498 584.190, 708.107 584.566 C 708.824 585.009, 709.020 584.590, 708.664 583.375 C 708.361 582.344, 707.810 579.349, 707.439 576.720 C 706.872 572.707, 706.474 572.032, 704.955 572.514 C 703.961 572.830, 701.484 572.393, 699.451 571.544 C 694.009 569.270, 687.357 569.658, 681.266 572.605 M 715.001 571.142 C 715.001 571.494, 716.134 572.068, 717.521 572.416 L 720.042 573.049 719.771 592.730 L 719.500 612.411 717 613.106 C 715.583 613.500, 718.182 613.779, 723 613.750 C 727.675 613.723, 730.151 613.502, 728.503 613.260 C 726.855 613.018, 725.174 612.298, 724.769 611.660 C 724.363 611.022, 724.024 606.836, 724.015 602.357 C 723.995 591.605, 725.218 591.148, 732.196 599.302 C 744.547 613.736, 744.879 614.010, 749.913 613.900 C 753.018 613.833, 753.794 613.590, 752.315 613.150 C 749.605 612.344, 747.525 610.485, 737.750 600.135 C 733.487 595.621, 730.008 591.382, 730.019 590.714 C 730.051 588.584, 746.782 572, 748.898 572 C 749.989 572, 751.091 571.663, 751.345 571.250 C 751.600 570.837, 748.566 570.500, 744.602 570.500 C 737.913 570.500, 737.534 570.612, 739.325 572.062 C 742.011 574.237, 741.081 576.266, 733.657 584.425 C 725.418 593.481, 724 593.159, 724 582.231 C 724 574.148, 724.882 572, 728.200 572 C 729.190 572, 730 571.663, 730 571.250 C 730 570.837, 726.626 570.500, 722.501 570.500 C 718.377 570.500, 715.002 570.789, 715.001 571.142 M 541.838 572.091 C 538.480 573.374, 535.583 579.190, 536.487 582.835 C 537.564 587.177, 540.855 589.789, 548.059 592.018 C 556.731 594.702, 560 597.817, 560 603.397 C 560 609.592, 556.457 613, 550.015 613 C 544.109 613, 540.717 610.480, 538.574 604.500 C 537.633 601.874, 537.117 601.230, 537.070 602.625 C 537.032 603.794, 536.719 606.156, 536.375 607.875 C 535.861 610.447, 536.068 611, 537.546 611 C 538.534 611, 540.213 611.788, 541.276 612.750 C 542.692 614.031, 544.917 614.500, 549.586 614.500 C 555.407 614.500, 556.236 614.225, 559.119 611.343 C 561.584 608.877, 562.367 607.125, 562.694 603.343 C 563.354 595.683, 560.964 592.818, 551.197 589.565 C 542.489 586.666, 540.344 584.972, 539.400 580.251 C 538.899 577.744, 539.280 576.629, 541.343 574.566 C 542.754 573.155, 544.852 572, 546.004 572 C 549.460 572, 553.672 574.733, 555.985 578.476 C 557.183 580.414, 558.239 582, 558.332 582 C 558.424 582, 558.500 579.833, 558.500 577.185 C 558.500 572.531, 558.400 572.366, 555.500 572.242 C 553.850 572.171, 550.700 571.879, 548.500 571.593 C 546.300 571.307, 543.302 571.531, 541.838 572.091 M 634.250 583.293 C 629.450 592.577, 629.614 593, 638.031 593 C 643.373 593, 645.202 592.638, 645.641 591.493 C 646.519 589.205, 641.009 576.999, 639.100 577.004 C 638.150 577.006, 636.181 579.559, 634.250 583.293" stroke="none" fill="#000000" fill-rule="evenodd"/><path d="M 569.582 570.925 C 569.406 571.241, 568.950 573.232, 568.568 575.348 C 568.094 577.969, 568.212 578.987, 568.936 578.539 C 569.521 578.178, 570 577.249, 570 576.476 C 570 574.092, 573.764 572.892, 580.272 573.203 L 586.500 573.500 586.500 593 L 586.500 612.500 583 613.118 C 581.052 613.462, 583.935 613.724, 589.500 613.708 C 595 613.693, 597.929 613.490, 596.009 613.259 C 594.089 613.027, 592.183 612.311, 591.774 611.669 C 591.365 611.026, 591.024 602.296, 591.015 592.269 L 591 574.038 593.316 573.457 C 594.590 573.137, 597.838 573.016, 600.533 573.188 C 604.834 573.462, 605.713 573.916, 607.717 576.898 C 609.844 580.064, 609.999 580.132, 609.985 577.898 C 609.977 576.579, 609.401 574.375, 608.706 573 L 607.441 570.500 588.671 570.425 C 578.348 570.384, 569.758 570.609, 569.582 570.925 M 636.055 576.206 C 629.096 589.687, 623.165 601.728, 621.007 606.754 C 619.206 610.947, 618.119 612.190, 615.625 612.914 C 613.146 613.632, 614.154 613.807, 620.500 613.760 C 624.900 613.727, 627.208 613.508, 625.629 613.272 C 622.936 612.870, 622.789 612.609, 623.266 609.054 C 623.545 606.970, 624.869 603.068, 626.206 600.382 L 628.639 595.500 638.265 595.214 C 649.159 594.891, 648.347 594.347, 651.853 604.321 C 654.119 610.769, 653.866 612.681, 650.665 613.305 C 649.474 613.538, 652.100 613.782, 656.500 613.849 C 663.442 613.954, 664.180 613.807, 662.082 612.735 C 660.215 611.782, 657.698 606.826, 651.046 591.007 C 645.604 578.066, 641.852 570.403, 640.865 570.213 C 639.823 570.012, 638.221 572.008, 636.055 576.206 M 681.266 572.605 C 666.814 579.598, 663.502 597.130, 674.497 608.443 C 678.810 612.881, 685.863 616.019, 691.428 615.976 C 693.118 615.963, 697.200 614.840, 700.500 613.481 C 703.800 612.121, 707.063 611.007, 707.750 611.005 C 708.532 611.002, 708.989 609.597, 708.970 607.250 C 708.943 603.934, 708.807 603.732, 707.799 605.500 C 705.865 608.894, 701.715 611.929, 696.750 613.581 C 692.391 615.031, 691.590 615.025, 687.020 613.507 C 673.235 608.928, 667.515 589.029, 676.895 578.285 C 680.457 574.206, 686.686 570.995, 690.985 571.022 C 698.022 571.066, 707 577.414, 707 582.345 C 707 583.190, 707.498 584.190, 708.107 584.566 C 708.824 585.009, 709.020 584.590, 708.664 583.375 C 708.361 582.344, 707.810 579.349, 707.439 576.720 C 706.872 572.707, 706.474 572.032, 704.955 572.514 C 703.961 572.830, 701.484 572.393, 699.451 571.544 C 694.009 569.270, 687.357 569.658, 681.266 572.605 M 715.001 571.142 C 715.001 571.494, 716.134 572.068, 717.521 572.416 L 720.042 573.049 719.771 592.730 L 719.500 612.411 717 613.106 C 715.583 613.500, 718.182 613.779, 723 613.750 C 727.675 613.723, 730.151 613.502, 728.503 613.260 C 726.855 613.018, 725.174 612.298, 724.769 611.660 C 724.363 611.022, 724.024 606.836, 724.015 602.357 C 723.995 591.605, 725.218 591.148, 732.196 599.302 C 744.547 613.736, 744.879 614.010, 749.913 613.900 C 753.018 613.833, 753.794 613.590, 752.315 613.150 C 749.605 612.344, 747.525 610.485, 737.750 600.135 C 733.487 595.621, 730.008 591.382, 730.019 590.714 C 730.051 588.584, 746.782 572, 748.898 572 C 749.989 572, 751.091 571.663, 751.345 571.250 C 751.600 570.837, 748.566 570.500, 744.602 570.500 C 737.913 570.500, 737.534 570.612, 739.325 572.062 C 742.011 574.237, 741.081 576.266, 733.657 584.425 C 725.418 593.481, 724 593.159, 724 582.231 C 724 574.148, 724.882 572, 728.200 572 C 729.190 572, 730 571.663, 730 571.250 C 730 570.837, 726.626 570.500, 722.501 570.500 C 718.377 570.500, 715.002 570.789, 715.001 571.142 M 541.838 572.091 C 538.480 573.374, 535.583 579.190, 536.487 582.835 C 537.564 587.177, 540.855 589.789, 548.059 592.018 C 556.731 594.702, 560 597.817, 560 603.397 C 560 609.592, 556.457 613, 550.015 613 C 544.109 613, 540.717 610.480, 538.574 604.500 C 537.633 601.874, 537.117 601.230, 537.070 602.625 C 537.032 603.794, 536.719 606.156, 536.375 607.875 C 535.861 610.447, 536.068 611, 537.546 611 C 538.534 611, 540.213 611.788, 541.276 612.750 C 542.692 614.031, 544.917 614.500, 549.586 614.500 C 555.407 614.500, 556.236 614.225, 559.119 611.343 C 561.584 608.877, 562.367 607.125, 562.694 603.343 C 563.354 595.683, 560.964 592.818, 551.197 589.565 C 542.489 586.666, 540.344 584.972, 539.400 580.251 C 538.899 577.744, 539.280 576.629, 541.343 574.566 C 542.754 573.155, 544.852 572, 546.004 572 C 549.460 572, 553.672 574.733, 555.985 578.476 C 557.183 580.414, 558.239 582, 558.332 582 C 558.424 582, 558.500 579.833, 558.500 577.185 C 558.500 572.531, 558.400 572.366, 555.500 572.242 C 553.850 572.171, 550.700 571.879, 548.500 571.593 C 546.300 571.307, 543.302 571.531, 541.838 572.091 M 634.250 583.293 C 629.450 592.577, 629.614 593, 638.031 593 C 643.373 593, 645.202 592.638, 645.641 591.493 C 646.519 589.205, 641.009 576.999, 639.100 577.004 C 638.150 577.006, 636.181 579.559, 634.250 583.293" stroke="none" fill="#000000" fill-rule="evenodd"/><path d="M 569.582 570.925 C 569.406 571.241, 568.950 573.232, 568.568 575.348 C 568.094 577.969, 568.212 578.987, 568.936 578.539 C 569.521 578.178, 570 577.249, 570 576.476 C 570 574.092, 573.764 572.892, 580.272 573.203 L 586.500 573.500 586.500 593 L 586.500 612.500 583 613.118 C 581.052 613.462, 583.935 613.724, 589.500 613.708 C 595 613.693, 597.929 613.490, 596.009 613.259 C 594.089 613.027, 592.183 612.311, 591.774 611.669 C 591.365 611.026, 591.024 602.296, 591.015 592.269 L 591 574.038 593.316 573.457 C 594.590 573.137, 597.838 573.016, 600.533 573.188 C 604.834 573.462, 605.713 573.916, 607.717 576.898 C 609.844 580.064, 609.999 580.132, 609.985 577.898 C 609.977 576.579, 609.401 574.375, 608.706 573 L 607.441 570.500 588.671 570.425 C 578.348 570.384, 569.758 570.609, 569.582 570.925 M 636.055 576.206 C 629.096 589.687, 623.165 601.728, 621.007 606.754 C 619.206 610.947, 618.119 612.190, 615.625 612.914 C 613.146 613.632, 614.154 613.807, 620.500 613.760 C 624.900 613.727, 627.208 613.508, 625.629 613.272 C 622.936 612.870, 622.789 612.609, 623.266 609.054 C 623.545 606.970, 624.869 603.068, 626.206 600.382 L 628.639 595.500 638.265 595.214 C 649.159 594.891, 648.347 594.347, 651.853 604.321 C 654.119 610.769, 653.866 612.681, 650.665 613.305 C 649.474 613.538, 652.100 613.782, 656.500 613.849 C 663.442 613.954, 664.180 613.807, 662.082 612.735 C 660.215 611.782, 657.698 606.826, 651.046 591.007 C 645.604 578.066, 641.852 570.403, 640.865 570.213 C 639.823 570.012, 638.221 572.008, 636.055 576.206 M 681.266 572.605 C 666.814 579.598, 663.502 597.130, 674.497 608.443 C 678.810 612.881, 685.863 616.019, 691.428 615.976 C 693.118 615.963, 697.200 614.840, 700.500 613.481 C 703.800 612.121, 707.063 611.007, 707.750 611.005 C 708.532 611.002, 708.989 609.597, 708.970 607.250 C 708.943 603.934, 708.807 603.732, 707.799 605.500 C 705.865 608.894, 701.715 611.929, 696.750 613.581 C 692.391 615.031, 691.590 615.025, 687.020 613.507 C 673.235 608.928, 667.515 589.029, 676.895 578.285 C 680.457 574.206, 686.686 570.995, 690.985 571.022 C 698.022 571.066, 707 577.414, 707 582.345 C 707 583.190, 707.498 584.190, 708.107 584.566 C 708.824 585.009, 709.020 584.590, 708.664 583.375 C 708.361 582.344, 707.810 579.349, 707.439 576.720 C 706.872 572.707, 706.474 572.032, 704.955 572.514 C 703.961 572.830, 701.484 572.393, 699.451 571.544 C 694.009 569.270, 687.357 569.658, 681.266 572.605 M 715.001 571.142 C 715.001 571.494, 716.134 572.068, 717.521 572.416 L 720.042 573.049 719.771 592.730 L 719.500 612.411 717 613.106 C 715.583 613.500, 718.182 613.779, 723 613.750 C 727.675 613.723, 730.151 613.502, 728.503 613.260 C 726.855 613.018, 725.174 612.298, 724.769 611.660 C 724.363 611.022, 724.024 606.836, 724.015 602.357 C 723.995 591.605, 725.218 591.148, 732.196 599.302 C 744.547 613.736, 744.879 614.010, 749.913 613.900 C 753.018 613.833, 753.794 613.590, 752.315 613.150 C 749.605 612.344, 747.525 610.485, 737.750 600.135 C 733.487 595.621, 730.008 591.382, 730.019 590.714 C 730.051 588.584, 746.782 572, 748.898 572 C 749.989 572, 751.091 571.663, 751.345 571.250 C 751.600 570.837, 748.566 570.500, 744.602 570.500 C 737.913 570.500, 737.534 570.612, 739.325 572.062 C 742.011 574.237, 741.081 576.266, 733.657 584.425 C 725.418 593.481, 724 593.159, 724 582.231 C 724 574.148, 724.882 572, 728.200 572 C 729.190 572, 730 571.663, 730 571.250 C 730 570.837, 726.626 570.500, 722.501 570.500 C 718.377 570.500, 715.002 570.789, 715.001 571.142 M 541.838 572.091 C 538.480 573.374, 535.583 579.190, 536.487 582.835 C 537.564 587.177, 540.855 589.789, 548.059 592.018 C 556.731 594.702, 560 597.817, 560 603.397 C 560 609.592, 556.457 613, 550.015 613 C 544.109 613, 540.717 610.480, 538.574 604.500 C 537.633 601.874, 537.117 601.230, 537.070 602.625 C 537.032 603.794, 536.719 606.156, 536.375 607.875 C 535.861 610.447, 536.068 611, 537.546 611 C 538.534 611, 540.213 611.788, 541.276 612.750 C 542.692 614.031, 544.917 614.500, 549.586 614.500 C 555.407 614.500, 556.236 614.225, 559.119 611.343 C 561.584 608.877, 562.367 607.125, 562.694 603.343 C 563.354 595.683, 560.964 592.818, 551.197 589.565 C 542.489 586.666, 540.344 584.972, 539.400 580.251 C 538.899 577.744, 539.280 576.629, 541.343 574.566 C 542.754 573.155, 544.852 572, 546.004 572 C 549.460 572, 553.672 574.733, 555.985 578.476 C 557.183 580.414, 558.239 582, 558.332 582 C 558.424 582, 558.500 579.833, 558.500 577.185 C 558.500 572.531, 558.400 572.366, 555.500 572.242 C 553.850 572.171, 550.700 571.879, 548.500 571.593 C 546.300 571.307, 543.302 571.531, 541.838 572.091 M 634.250 583.293 C 629.450 592.577, 629.614 593, 638.031 593 C 643.373 593, 645.202 592.638, 645.641 591.493 C 646.519 589.205, 641.009 576.999, 639.100 577.004 C 638.150 577.006, 636.181 579.559, 634.250 583.293" stroke="none" fill="#000000" fill-rule="evenodd"/><path d="M 467.207 431.938 C 459.896 436.199, 453.508 440.094, 453.012 440.593 C 452.515 441.092, 452.021 449.309, 451.913 458.853 C 451.756 472.734, 451.995 476.391, 453.108 477.129 C 453.874 477.636, 459 480.579, 464.500 483.669 C 479.168 491.911, 478 489.890, 478 507.024 L 478 521.738 488.750 528.008 C 494.663 531.457, 501.532 535.390, 504.015 536.748 L 508.529 539.218 520.743 532.109 C 527.461 528.199, 533.673 525, 534.549 525 C 535.424 525, 539.371 526.948, 543.320 529.329 C 547.269 531.710, 552.805 534.900, 555.622 536.418 L 560.743 539.178 575.893 530.430 L 591.044 521.682 590.772 503.772 L 590.500 485.863 578 478.660 L 565.500 471.456 565 456.155 C 564.552 442.447, 564.300 440.732, 562.579 439.677 C 559.113 437.553, 555.639 435.538, 545.196 429.593 C 533.295 422.819, 535.489 422.608, 519.431 432.068 C 509.330 438.019, 507.213 438.779, 505.450 437.089 C 503.469 435.191, 483.163 424.004, 481.862 424.095 C 481.113 424.147, 474.518 427.677, 467.207 431.938 M 530.401 436.169 C 528.255 437.313, 525.306 439.092, 523.846 440.124 C 522.386 441.156, 520.964 442, 520.686 442 C 520.408 442, 512.602 446.430, 503.340 451.844 C 494.078 457.259, 485.496 462.220, 484.269 462.869 C 482.394 463.862, 481.439 463.673, 478.269 461.682 C 471.865 457.660, 463.161 453, 462.054 453 C 461.393 453, 461 456.358, 461 461.998 L 461 470.996 465.750 473.987 C 468.363 475.632, 473.230 478.408, 476.566 480.155 L 482.633 483.331 508.161 468.666 C 522.201 460.600, 534.096 454.005, 534.594 454.011 C 535.093 454.017, 539.709 456.489, 544.854 459.506 C 549.998 462.522, 554.611 464.740, 555.104 464.436 C 556.174 463.774, 556.289 447.959, 555.235 446.445 C 554.831 445.865, 550.900 443.342, 546.500 440.839 C 533.607 433.503, 534.770 433.841, 530.401 436.169 M 474.100 438.568 C 471.130 440.419, 468.237 442.088, 467.670 442.277 C 465.359 443.047, 468.155 445.718, 475.131 449.405 L 482.516 453.308 490.226 448.904 C 494.466 446.482, 497.950 444.183, 497.968 443.795 C 498.030 442.423, 484.348 435.001, 481.942 435.102 C 480.599 435.158, 477.070 436.718, 474.100 438.568 M 526.588 468.607 C 522.345 471.091, 519.035 473.604, 519.231 474.193 C 519.427 474.781, 522.954 477.071, 527.069 479.281 L 534.550 483.299 542.275 479.059 C 546.524 476.727, 550 474.442, 550 473.982 C 550 473.522, 547.413 471.594, 544.250 469.698 C 533.936 463.515, 535.157 463.591, 526.588 468.607 M 500.081 483.777 C 496.550 485.832, 493.507 487.980, 493.317 488.548 C 492.932 489.705, 506.219 498, 508.457 498 C 510.173 498, 524 489.815, 524 488.799 C 524 487.656, 510.329 479.998, 508.326 480.020 C 507.321 480.030, 503.611 481.721, 500.081 483.777 M 546 487.376 C 517.295 504.078, 508.741 509, 508.415 509 C 508.226 509, 503.784 506.525, 498.544 503.500 C 493.304 500.475, 488.563 498, 488.009 498 C 487.406 498, 487 501.564, 487 506.845 C 487 514.045, 487.326 515.962, 488.750 517.153 C 491.907 519.793, 506.917 528, 508.588 528 C 509.487 528, 513.885 525.822, 518.361 523.160 C 536.162 512.576, 559.888 499, 560.587 499 C 560.993 499, 565.474 501.475, 570.543 504.500 C 575.613 507.525, 580.264 510, 580.880 510 C 581.623 510, 582 506.988, 582 501.048 L 582 492.096 577.750 489.231 C 570.752 484.514, 562.147 479.997, 560.265 480.051 C 559.294 480.079, 552.875 483.375, 546 487.376 M 552.052 513.931 C 548.505 515.998, 545.451 518.148, 545.264 518.708 C 544.861 519.917, 558.115 528, 560.500 528 C 562.878 528, 576.140 519.919, 575.738 518.714 C 575.250 517.250, 562.134 509.984, 560.163 510.086 C 559.249 510.134, 555.598 511.864, 552.052 513.931 M 344.757 569.072 C 332.152 572.081, 324.123 584.817, 327.017 597.211 C 328.810 604.891, 333.277 610.398, 340.753 614.144 C 346.253 616.900, 347.707 617.214, 352.841 616.748 C 356.050 616.457, 360.078 615.494, 361.791 614.608 C 366.311 612.271, 371.726 606.336, 373.170 602.139 C 375.117 596.476, 374.678 587.172, 372.238 582.432 C 369.977 578.037, 363.247 571.414, 359.698 570.092 C 355.816 568.645, 348.608 568.153, 344.757 569.072 M 639.065 569.421 C 638.101 570.583, 638.246 570.748, 639.861 570.326 C 641.295 569.951, 642.259 570.589, 643.378 572.655 C 644.226 574.220, 644.938 575.119, 644.960 574.654 C 645.017 573.448, 641.699 568, 640.907 568 C 640.543 568, 639.714 568.640, 639.065 569.421 M 292.750 570.728 C 288.440 571.179, 287.840 572.492, 291.522 573.416 L 294.043 574.049 293.772 593.230 C 293.501 612.343, 293.492 612.413, 291.191 612.956 C 285.920 614.198, 289.120 615.364, 298.250 615.526 C 305.854 615.662, 308 615.403, 308 614.350 C 308 613.448, 306.708 613, 304.107 613 C 301.480 613, 300.017 612.486, 299.607 611.418 C 298.523 608.594, 298.958 597.442, 300.200 596.200 C 300.860 595.540, 303.803 595, 306.740 595 C 316.610 595, 323.557 589.466, 323.355 581.764 C 323.229 576.971, 319.580 572.790, 314.084 571.143 C 310.461 570.058, 300.932 569.873, 292.750 570.728 M 378 571.299 C 378 571.970, 378.853 573.051, 379.895 573.702 C 380.957 574.365, 382.729 577.878, 383.927 581.693 C 386.907 591.185, 395.163 613.241, 396.302 614.750 C 396.821 615.438, 397.605 616, 398.045 616 C 398.485 616, 400.518 611.612, 402.563 606.250 C 408.036 591.895, 408.039 591.894, 412.960 604.635 C 415.262 610.595, 417.654 615.786, 418.275 616.170 C 418.896 616.554, 419.909 616.110, 420.525 615.184 C 421.973 613.010, 431.209 591.283, 433.995 583.500 C 437.101 574.821, 438.015 573.229, 440.225 572.652 C 444.156 571.623, 440.892 570.250, 434.518 570.250 C 429.654 570.250, 428 570.599, 428 571.625 C 428 572.381, 428.900 573, 430 573 C 433.873 573, 432.337 580.637, 424.821 598.750 C 420.234 609.807, 419.986 609.585, 411.418 586.703 C 408.988 580.215, 407 574.691, 407 574.428 C 407 574.165, 408.187 573.499, 409.639 572.947 C 413.571 571.452, 411.788 570.659, 403.984 570.429 C 398.766 570.276, 397 570.558, 397 571.542 C 397 572.268, 398.012 573.005, 399.250 573.180 C 401.066 573.438, 402.014 574.968, 404.166 581.119 L 406.832 588.737 403.533 596.918 C 400.121 605.381, 399.369 606.702, 398.472 605.806 C 397.304 604.637, 388 577.800, 388 575.599 C 388 574.001, 388.716 573.046, 390.206 572.656 C 393.933 571.682, 391.245 570.594, 384.457 570.330 C 379.904 570.152, 378 570.438, 378 571.299 M 444.241 571.222 C 444.465 571.895, 445.740 572.702, 447.074 573.017 L 449.500 573.589 449.772 592.373 L 450.045 611.157 447.022 612.298 C 445.360 612.925, 444 613.919, 444 614.507 C 444 615.699, 475.944 615.317, 477.240 614.109 C 477.648 613.730, 478.242 611.187, 478.562 608.460 L 479.143 603.500 477.123 606 C 472.249 612.032, 472.313 612, 465.082 612 C 454.724 612, 455 612.290, 455 601.412 C 455 590.700, 455.104 590.589, 464.566 591.188 C 469.115 591.476, 469.525 591.715, 469.816 594.250 C 470.002 595.866, 470.742 597, 471.610 597 C 472.805 597, 473.031 595.611, 472.794 589.750 C 472.517 582.929, 470.883 579.802, 470.181 584.748 C 469.799 587.436, 467.233 588.243, 460.434 587.812 L 455.500 587.500 455.198 581.666 C 454.792 573.851, 455.662 573, 464.051 573 C 471.042 573, 472.745 573.787, 475.042 578.078 C 476.713 581.201, 478.235 580.380, 477.505 576.750 C 476.034 569.442, 477.494 570, 459.849 570 C 447.674 570, 443.931 570.293, 444.241 571.222 M 490.250 570.743 C 486.262 570.932, 483 571.518, 483 572.044 C 483 572.570, 483.450 573, 484 573 C 484.550 573, 485.900 573.900, 487 575 C 488.832 576.832, 488.999 578.323, 488.986 592.750 C 488.970 611.242, 488.657 613, 485.383 613 C 484.073 613, 483 613.563, 483 614.250 C 483 615.157, 485.467 615.500, 492 615.500 C 498.277 615.500, 501 615.141, 501 614.313 C 501 613.661, 499.538 612.986, 497.750 612.813 L 494.500 612.500 494.214 603.329 C 493.949 594.850, 494.081 594.109, 495.964 593.512 C 499.473 592.398, 501.336 593.788, 507 601.742 C 517.547 616.554, 520.451 618.549, 524.595 613.830 C 526.305 611.883, 526.321 611.726, 524.750 612.299 C 521.772 613.385, 519.967 611.959, 515.150 604.717 C 506.683 591.986, 507.188 593.458, 510.206 590.295 C 515.479 584.768, 515.810 579.745, 511.229 574.804 C 509.052 572.456, 500.678 569.496, 498.201 570.199 C 497.815 570.308, 494.238 570.553, 490.250 570.743 M 541.441 571.424 C 539.725 572.683, 539.993 572.718, 543.741 571.720 C 547.008 570.851, 548.788 570.883, 551.495 571.862 C 555.021 573.137, 559 572.656, 559 570.954 C 559 570.453, 557.932 570.530, 556.626 571.124 C 554.917 571.903, 553.677 571.897, 552.192 571.103 C 549.313 569.562, 543.753 569.728, 541.441 571.424 M 568.656 570.750 C 567.480 572.661, 566.833 581, 567.861 581 C 569.123 581, 572.413 575.080, 571.602 574.268 C 571.302 573.968, 570.581 574.972, 570 576.500 C 568.485 580.485, 567.767 578.994, 568.859 574.132 C 569.742 570.203, 569.675 569.095, 568.656 570.750 M 680.500 571.569 C 676.863 573.457, 672.188 577.775, 670.833 580.500 C 670.286 581.600, 671.007 581.070, 672.436 579.321 C 676.274 574.625, 685.809 569.264, 683.405 573.155 C 682.972 573.855, 683.129 574.038, 683.805 573.620 C 686.555 571.921, 694.591 572.221, 698.750 574.178 C 701.087 575.278, 703 576.588, 703 577.089 C 703 577.590, 703.520 578, 704.155 578 C 706.461 578, 701.666 574.038, 697.377 572.400 C 694.316 571.231, 691.572 570.917, 688.250 571.357 C 684.995 571.788, 683.972 571.679, 685 571.009 C 687.589 569.321, 683.962 569.773, 680.500 571.569 M 699.500 571.466 C 701.150 572.285, 703.480 572.739, 704.678 572.476 C 706.653 572.043, 706.920 572.515, 707.549 577.545 C 707.930 580.595, 708.450 582.884, 708.703 582.630 C 708.957 582.376, 708.855 579.691, 708.477 576.663 C 707.805 571.284, 707.717 571.158, 704.645 571.218 C 702.915 571.252, 700.375 570.987, 699 570.629 C 696.927 570.089, 697.012 570.232, 699.500 571.466 M 713.241 571.222 C 713.465 571.895, 714.740 572.702, 716.074 573.017 L 718.500 573.589 718.771 592.665 L 719.042 611.742 715.935 612.363 C 714.062 612.738, 712.995 613.484, 713.247 614.242 C 713.770 615.809, 729.695 616.070, 730.977 614.532 C 731.560 613.833, 729.038 613.562, 723.169 613.692 C 718.185 613.802, 715.563 613.570, 717 613.147 L 719.500 612.411 719.771 592.730 L 720.042 573.049 717.521 572.416 C 716.134 572.068, 715 571.382, 715 570.892 C 715 570.401, 714.513 570, 713.917 570 C 713.321 570, 713.017 570.550, 713.241 571.222 M 730 570.833 C 730 571.475, 729.190 572, 728.200 572 C 724.890 572, 724 574.150, 724 582.141 C 724 586.399, 724.337 590.092, 724.750 590.349 C 725.163 590.605, 725.348 587.897, 725.161 584.329 C 724.729 576.049, 725.482 573, 727.960 573 C 729.977 573, 731.626 571.293, 730.600 570.267 C 730.270 569.937, 730 570.192, 730 570.833 M 737.916 572.133 C 739.062 573.061, 740 574.232, 740 574.736 C 740 575.239, 736.970 579.217, 733.267 583.575 C 729.564 587.934, 727.314 590.882, 728.267 590.128 C 729.756 588.948, 730 588.973, 730 590.306 C 730 591.160, 731.607 593.577, 733.570 595.679 C 744.487 607.363, 750.455 612.997, 751.889 612.970 C 753.147 612.946, 753.062 612.698, 751.500 611.838 C 748.695 610.293, 743.818 605.619, 736.840 597.787 C 732.516 592.934, 731.092 590.659, 731.698 589.576 C 733.875 585.686, 746.528 573.920, 749.310 573.199 C 750.990 572.764, 752.563 571.754, 752.807 570.954 C 753.164 569.782, 752.993 569.743, 751.925 570.750 C 751.196 571.438, 749.760 572, 748.734 572 C 747.708 572, 743.975 575.038, 740.437 578.750 C 733.759 585.759, 731.349 586.676, 737.500 579.868 C 741.184 575.790, 741.821 573.650, 739.750 572.309 C 738.998 571.822, 740.891 571.253, 744.500 570.880 L 750.500 570.260 743.166 570.352 C 736.121 570.441, 735.914 570.512, 737.916 572.133 M 344.367 571.690 C 340.643 572.420, 334.446 578.569, 333.181 582.789 C 328.231 599.313, 339.480 615.828, 354 613.353 C 359.017 612.498, 363.549 609.465, 366.186 605.200 C 369.329 600.115, 369.385 588.386, 366.295 582.500 C 361.660 573.673, 353.863 569.829, 344.367 571.690 M 300.035 573.934 C 298.752 576.332, 298.693 590.967, 299.959 592.968 C 300.742 594.206, 301.757 594.254, 306.433 593.273 C 312.789 591.940, 316.426 589.625, 318.010 585.904 C 320.393 580.306, 316.538 574.822, 309 573.085 C 302.607 571.613, 301.207 571.745, 300.035 573.934 M 494.765 573.378 C 493.777 574.366, 493.478 576.843, 493.710 582.128 C 494.120 591.483, 494.335 592, 497.819 592 C 511.282 592, 514.600 578.491, 502.390 573.390 C 498.206 571.642, 496.504 571.639, 494.765 573.378 M 541.455 574.455 C 540.105 575.805, 539.039 577.942, 539.086 579.205 C 539.159 581.150, 539.308 581.043, 540.066 578.501 C 542.232 571.238, 547.644 571.143, 554.356 578.250 L 559.315 583.500 556.481 579.185 C 551.751 571.980, 545.802 570.107, 541.455 574.455 M 579 573.897 L 585.500 574.500 585.500 592.955 L 585.500 611.410 583 612.151 C 580.672 612.841, 580.706 612.879, 583.500 612.696 L 586.500 612.500 586.500 593 L 586.500 573.500 579.500 573.397 L 572.500 573.294 579 573.897 M 592.250 573.641 C 591.316 574.034, 591 578.681, 591 592.002 C 591 601.811, 591.273 610.548, 591.607 611.418 C 592.002 612.448, 593.311 612.948, 595.357 612.850 C 598.380 612.706, 598.395 612.684, 595.750 612.284 L 593 611.867 592.850 594.434 C 592.768 584.845, 592.655 576.438, 592.600 575.750 C 592.532 574.901, 594.508 574.404, 598.755 574.202 C 604.976 573.906, 605.023 573.924, 607.104 577.452 C 609.611 581.701, 611.050 582.006, 610.864 578.250 C 610.744 575.837, 610.674 575.780, 610.289 577.787 C 609.869 579.981, 609.760 579.940, 607.641 576.787 C 605.589 573.736, 605.003 573.486, 599.465 573.307 C 596.184 573.201, 592.938 573.351, 592.250 573.641 M 677.498 577.708 C 675.574 579.748, 674.014 582.110, 674.030 582.958 C 674.053 584.085, 674.358 583.961, 675.162 582.500 C 675.768 581.400, 677.642 579.038, 679.328 577.250 C 681.013 575.462, 682.078 574, 681.694 574 C 681.310 574, 679.422 575.669, 677.498 577.708 M 645.278 577.250 C 649.277 587.400, 657.428 605.906, 657.755 605.578 C 658.272 605.062, 646.032 576, 645.298 576 C 645.016 576, 645.008 576.563, 645.278 577.250 M 634.250 583.293 C 629.450 592.577, 629.614 593, 638.031 593 C 646.128 593, 647.342 591.829, 644.604 586.663 C 643.682 584.923, 643.227 584.400, 643.593 585.500 C 645.769 592.049, 645.806 592, 638.617 592 C 634.435 592, 632 591.591, 632 590.890 C 632 589.187, 638.168 578, 639.107 578 C 639.563 578, 640.607 579.237, 641.428 580.750 C 643.202 584.021, 643.492 583.174, 641.839 579.547 C 639.955 575.411, 637.767 576.490, 634.250 583.293 M 540.022 582.421 C 539.968 584.652, 543.802 587.103, 551.197 589.565 C 560.964 592.818, 563.354 595.683, 562.694 603.343 C 562.367 607.125, 561.584 608.877, 559.119 611.343 C 556.236 614.225, 555.407 614.500, 549.586 614.500 C 544.917 614.500, 542.692 614.031, 541.276 612.750 C 540.213 611.788, 538.623 611, 537.745 611 C 536.866 611, 535.934 610.316, 535.675 609.480 C 535.341 608.405, 535.250 608.475, 535.363 609.719 C 535.451 610.686, 536.416 611.649, 537.507 611.859 C 538.598 612.069, 540.566 613.087, 541.880 614.121 C 544.862 616.466, 552.862 616.640, 557.094 614.451 C 561.360 612.246, 563.992 607.415, 563.996 601.785 C 563.999 597.931, 563.432 596.422, 560.889 593.526 C 559.177 591.577, 556.590 589.712, 555.139 589.381 C 548.378 587.842, 543.352 585.704, 541.772 583.696 C 540.822 582.488, 540.034 581.915, 540.022 582.421 M 536.079 584.349 C 535.970 586.905, 541.264 591.603, 545.124 592.375 C 549.764 593.303, 549.887 592.316, 545.286 591.077 C 541.472 590.050, 537.815 587.033, 536.706 584 C 536.290 582.862, 536.139 582.946, 536.079 584.349 M 668.116 586.098 C 666.591 590.472, 666.789 596.885, 668.560 600.500 C 669.369 602.150, 669.744 602.600, 669.394 601.500 C 668.059 597.302, 667.803 590.003, 668.884 586.904 C 669.503 585.128, 669.834 583.501, 669.620 583.287 C 669.406 583.073, 668.729 584.338, 668.116 586.098 M 672.630 587.250 C 671.842 590.192, 671.954 595.027, 672.864 597.338 C 673.268 598.363, 673.588 596.038, 673.588 592.088 C 673.588 588.190, 673.508 585, 673.411 585 C 673.313 585, 672.962 586.013, 672.630 587.250 M 625.500 594.690 C 623.458 598.985, 620.867 604.452, 619.742 606.838 C 618.617 609.224, 616.752 611.558, 615.598 612.025 C 614.323 612.540, 614.088 612.892, 615 612.921 C 615.825 612.948, 617 612.639, 617.610 612.235 C 618.903 611.380, 630.208 587.875, 629.613 587.280 C 629.393 587.060, 627.542 590.394, 625.500 594.690 M 552.772 594.593 C 554.571 595.380, 556.932 597.481, 558.018 599.262 C 559.104 601.043, 559.980 601.825, 559.964 601 C 559.910 598.097, 554.067 592.919, 551.027 593.082 C 550.187 593.126, 550.972 593.807, 552.772 594.593 M 725.250 593.665 C 724.399 594.007, 724 596.668, 724 602.002 C 724 611.685, 724.478 613.032, 727.857 612.884 C 729.953 612.792, 730.086 612.665, 728.500 612.268 C 725.531 611.527, 725.032 610.173, 725.015 602.809 C 724.994 593.336, 725.619 593.226, 732.812 601.432 C 734.633 603.510, 736.287 605.047, 736.487 604.847 C 737.297 604.037, 726.408 593.201, 725.250 593.665 M 627.793 597.250 C 623.375 604.169, 621.665 613.012, 624.750 612.985 C 626.113 612.973, 626.200 612.779, 625.143 612.110 C 623.406 611.009, 624.370 606.240, 627.640 599.750 C 630.154 594.762, 630.235 593.425, 627.793 597.250 M 536.667 599.667 C 536.300 600.033, 536.059 601.946, 536.132 603.917 L 536.263 607.500 536.882 604 L 537.500 600.500 538.774 604.696 C 540.084 609.012, 544.029 613.031, 546.885 612.960 C 547.840 612.936, 547.274 612.258, 545.500 611.301 C 541.761 609.283, 540.073 607.132, 540.032 604.332 C 539.970 600.142, 538.387 597.947, 536.667 599.667 M 674.040 601.253 C 673.994 603.251, 682.987 613, 684.875 613 C 685.559 613, 685.840 612.550, 685.500 612 C 685.160 611.450, 684.318 611, 683.628 611 C 682.028 611, 677.706 606.389, 675.659 602.500 C 674.598 600.484, 674.067 600.075, 674.040 601.253 M 708.866 601.250 C 708.792 601.938, 708.832 604.413, 708.956 606.750 C 709.114 609.745, 708.785 611.001, 707.840 611.005 C 707.103 611.007, 703.800 612.121, 700.500 613.481 C 697.200 614.840, 693.118 615.963, 691.428 615.976 C 685.686 616.021, 678.814 612.885, 674.145 608.090 C 671.686 605.566, 670.159 604.400, 670.751 605.500 C 675.423 614.177, 688.609 619.021, 698 615.510 C 700.475 614.584, 704.071 613.234, 705.991 612.509 C 709.647 611.130, 710.721 609.104, 710.900 603.250 C 710.993 600.241, 709.167 598.446, 708.866 601.250 M 651.742 607.350 C 652.128 610.043, 651.874 611.466, 650.897 612.085 C 649.758 612.806, 649.803 612.972, 651.143 612.985 C 653.557 613.007, 654.163 610.357, 652.580 606.707 L 651.189 603.500 651.742 607.350 M 558.478 607.069 C 558.117 608.207, 556.399 610.005, 554.661 611.065 C 552.602 612.321, 552.096 612.994, 553.210 612.996 C 555.142 613, 560 608.182, 560 606.260 C 560 604.338, 559.212 604.756, 558.478 607.069 M 705.405 607.143 C 704.357 608.322, 702.150 610.120, 700.500 611.139 C 698.850 612.159, 697.962 612.994, 698.527 612.996 C 700.412 613.003, 708 606.876, 708 605.347 C 708 604.566, 707.209 605.113, 705.405 607.143 M 740.134 609.900 C 743.933 614.301, 745.011 614.920, 750.115 615.634 C 752.571 615.978, 753.895 615.716, 754.240 614.820 C 754.627 613.815, 753.629 613.580, 750.066 613.834 C 745.682 614.146, 745.149 613.907, 741.694 610.084 C 736.987 604.873, 735.661 604.717, 740.134 609.900 M 658 607.507 C 658 609.180, 660.366 612.212, 662.315 613.038 C 663.846 613.686, 662.031 613.893, 656.247 613.731 C 651.089 613.587, 648.121 613.875, 648.332 614.500 C 648.833 615.987, 664.252 615.744, 664.753 614.242 C 664.975 613.575, 663.997 612.500, 662.579 611.854 C 661.160 611.208, 660 610.103, 660 609.399 C 660 608.694, 659.550 607.840, 659 607.500 C 658.450 607.160, 658 607.163, 658 607.507 M 579.330 614.500 C 579.743 615.734, 597.755 616.206, 598.499 615.002 C 598.794 614.524, 594.526 613.991, 589.015 613.817 C 582.641 613.615, 579.117 613.864, 579.330 614.500 M 612 614.183 C 612 615.935, 628.081 616.242, 628.665 614.500 C 628.871 613.885, 625.723 613.500, 620.500 613.500 C 615.825 613.500, 612 613.807, 612 614.183 M 689.250 614.162 C 691.091 614.835, 692.909 614.835, 694.750 614.162 C 697.171 613.278, 696.841 613.158, 692 613.158 C 687.159 613.158, 686.829 613.278, 689.250 614.162" stroke="none" fill="#237b50" fill-rule="evenodd"/></svg>