<svg xmlns="http://www.w3.org/2000/svg" width="174" height="156" viewBox="0 0 174 156" version="1.1"><path d="M 42 23.662 C 39.525 25.080, 33.365 28.671, 28.312 31.642 L 19.124 37.044 18.812 47.772 C 18.640 53.672, 18.630 61.656, 18.789 65.513 L 19.078 72.526 27.701 77.353 C 32.444 80.008, 38.040 83.263, 40.136 84.586 L 43.948 86.992 44.224 102.139 C 44.447 114.361, 44.790 117.446, 46 118.120 C 46.825 118.579, 51.550 121.339, 56.500 124.253 C 61.450 127.168, 67.569 130.628, 70.097 131.943 L 74.694 134.334 86.097 127.723 C 92.369 124.087, 98.261 120.823, 99.191 120.471 C 100.285 120.057, 105.328 122.371, 113.459 127.016 C 120.988 131.317, 126.664 133.959, 127.601 133.600 C 130.393 132.528, 150.405 120.848, 153.750 118.337 L 157 115.898 156.985 100.199 C 156.976 91.565, 156.639 83.981, 156.235 83.348 C 155.831 82.714, 150.325 79.172, 144 75.476 C 137.675 71.781, 131.938 68.051, 131.250 67.188 C 130.384 66.100, 129.999 61.300, 129.998 51.559 L 129.996 37.500 125.748 34.869 C 123.412 33.423, 118.800 30.768, 115.500 28.970 C 112.200 27.172, 109.275 25.431, 108.999 25.100 C 108.039 23.949, 101.827 21, 100.361 21 C 98.737 21, 94.536 23.252, 82.615 30.512 L 74.730 35.313 68.615 31.972 C 65.252 30.134, 59.680 26.913, 56.232 24.815 C 52.785 22.717, 49.185 21.019, 48.232 21.042 C 47.280 21.065, 44.475 22.244, 42 23.662 M 43.500 31.825 C 41.850 32.766, 38.587 34.623, 36.250 35.952 C 29.814 39.611, 30.017 39.909, 44.409 47.958 L 48.318 50.145 53.409 47.431 C 60.133 43.846, 65.159 40.066, 64.537 39.060 C 63.550 37.463, 50.113 30.001, 48.325 30.057 C 47.321 30.089, 45.150 30.884, 43.500 31.825 M 96.473 31.353 C 95.388 32.098, 92.475 33.826, 90 35.194 C 87.525 36.563, 79.425 41.209, 72 45.520 C 64.575 49.832, 56.700 54.398, 54.500 55.667 C 52.300 56.937, 49.437 57.981, 48.139 57.988 C 46.840 57.995, 41.985 55.709, 37.349 52.908 C 32.712 50.108, 28.262 48.069, 27.460 48.377 C 26.329 48.811, 26 50.977, 26 57.994 L 26 67.051 32.250 71.019 C 35.688 73.201, 40.750 76.171, 43.500 77.619 L 48.500 80.250 58.244 74.616 C 63.604 71.516, 72.379 66.441, 77.744 63.336 C 83.110 60.231, 89.525 56.580, 92 55.222 C 94.475 53.864, 96.927 52.359, 97.450 51.876 C 99.187 50.274, 101.736 50.964, 108.148 54.776 C 122.615 63.375, 123 63.295, 123 51.706 C 123 41.893, 123.065 41.980, 110.273 34.689 C 101.492 29.684, 99.579 29.222, 96.473 31.353 M 91.250 64.640 C 87.263 67.159, 84 69.581, 84 70.024 C 84 70.828, 90.355 74.902, 97.043 78.386 L 100.585 80.232 108.293 75.921 C 112.816 73.391, 116 70.960, 116 70.035 C 116 68.199, 103.190 59.986, 100.395 60.030 C 99.353 60.047, 95.237 62.121, 91.250 64.640 M 69.583 77.083 C 61.981 81.158, 57.875 84.124, 58.255 85.265 C 58.617 86.352, 64.422 89.991, 71.706 93.697 C 74.902 95.323, 74.935 95.314, 82.956 90.465 C 87.380 87.790, 91 85.297, 91 84.923 C 91 84.550, 90.438 83.796, 89.750 83.247 C 87.794 81.685, 75.297 75, 74.334 75 C 73.859 75, 71.721 75.938, 69.583 77.083 M 124 75.724 C 123.175 76.058, 119.800 77.981, 116.500 79.998 C 113.200 82.014, 108.475 84.793, 106 86.173 C 103.525 87.553, 95.442 92.190, 88.039 96.477 L 74.577 104.272 70.039 101.932 C 67.542 100.645, 63.085 98.081, 60.133 96.234 C 57.182 94.387, 54.144 93.114, 53.383 93.406 C 51.165 94.258, 51.465 110.152, 53.750 112.830 C 55.624 115.026, 72.549 125.002, 74.393 124.997 C 75.002 124.996, 78.110 123.421, 81.300 121.497 C 84.490 119.574, 87.316 118, 87.580 118 C 87.844 118, 92.123 115.525, 97.088 112.500 C 102.053 109.475, 106.299 107, 106.523 107 C 106.747 107, 111.011 104.525, 116 101.500 C 120.989 98.475, 125.714 96, 126.500 96 C 127.286 96, 132.011 98.475, 137 101.500 C 141.989 104.525, 146.466 107, 146.950 107 C 148.005 107, 148.702 96.090, 148 90.568 C 147.527 86.850, 147.023 86.347, 138.739 81.334 C 129.701 75.864, 126.583 74.678, 124 75.724 M 119.834 108.297 C 111.472 113.024, 109.581 114.513, 110.353 115.762 C 110.735 116.381, 114.497 118.790, 118.712 121.117 L 126.377 125.348 132.472 122.092 C 135.824 120.301, 139.677 117.972, 141.034 116.918 L 143.500 115 141 113.029 C 138.004 110.667, 127.574 104.981, 126.360 105.047 C 125.887 105.073, 122.950 106.536, 119.834 108.297" stroke="none" fill="#197a4a" fill-rule="evenodd"/></svg>