<svg xmlns="http://www.w3.org/2000/svg" version="1.1" xmlns:xlink="http://www.w3.org/1999/xlink" xmlns:svgjs="http://svgjs.dev/svgjs" width="1000" height="1000" viewBox="0 0 1000 1000"><rect width="1000" height="1000" fill="#ffffff"></rect><g transform="matrix(0.7,0,0,0.7,149.57575757575756,412.9308531213384)"><svg viewBox="0 0 396 99" data-background-color="#ffffff" preserveAspectRatio="xMidYMid meet" height="249" width="1000" xmlns="http://www.w3.org/2000/svg" xmlns:xlink="http://www.w3.org/1999/xlink"><g id="tight-bounds" transform="matrix(1,0,0,1,0.2400000000000091,-0.04592345962419131)"><svg viewBox="0 0 395.52 99.09184691924837" height="99.09184691924837" width="395.52"><g><svg viewBox="0 0 569.324496970999 142.63606366613146" height="99.09184691924837" width="395.52"><g transform="matrix(1,0,0,1,173.80449697099903,19.71308839379965)"><svg viewBox="0 0 395.52 103.20988687853216" height="103.20988687853216" width="395.52"><g id="textblocktransform"><svg viewBox="0 0 395.52 103.20988687853216" height="103.20988687853216" width="395.52" id="textblock"><g><svg viewBox="0 0 395.52 65.44326101249177" height="65.44326101249177" width="395.52"><g transform="matrix(1,0,0,1,0,0)"><svg width="395.52" viewBox="4 -37.5 228.1300048828125 37.75" height="65.44326101249177" data-palette-color="#8bc53f"><path d="M7.4 0L4 0 4-35 11.25-35Q17.4-35 20.15-33.05L20.15-33.05Q23.35-30.8 23.35-25.35L23.35-25.35Q23.35-16.25 16.35-14.25L16.35-14.25Q14.1-13.6 11.25-13.6L11.25-13.6 7.4-13.6 7.4 0ZM11-32.25L7.4-32.25 7.4-16.35 11-16.35Q15.5-16.35 17.73-18.32 19.95-20.3 19.95-24.78 19.95-29.25 17.73-30.75 15.5-32.25 11-32.25L11-32.25ZM26.5-6.4L26.5-6.4Q25.6-8.8 25.6-12L25.6-12Q25.6-18.15 29.05-21.68 32.5-25.2 37.7-25.2L37.7-25.2Q45.85-25.2 48.4-18.6L48.4-18.6Q49.35-16.2 49.35-13L49.35-13Q49.35-6.85 45.9-3.33 42.45 0.2 37.25 0.2L37.25 0.2Q29.1 0.2 26.5-6.4ZM28.85-12.35Q28.85-7.75 31.22-5.23 33.6-2.7 37.35-2.7 41.1-2.7 43.6-5.38 46.1-8.05 46.1-12.65 46.1-17.25 43.75-19.78 41.4-22.3 37.62-22.3 33.85-22.3 31.35-19.63 28.85-16.95 28.85-12.35ZM74.75 0L68.84-20.1 62.14 0 59.14 0 50.89-25 54.54-25.25 60.89-4.1 67.39-25 70.55-25.25 76.14-4.05 83.5-25 87.34-25.25 77.75 0 74.75 0ZM92.09-12.3L92.09-11.5Q92.09-2.7 100.49-2.7L100.49-2.7Q104.04-2.7 106.99-3.65L106.99-3.65Q107.74-3.9 108.04-4.05L108.04-4.05 108.79-1.4Q107.04-0.35 102.44 0.1L102.44 0.1Q101.14 0.2 99.69 0.2L99.69 0.2Q95.49 0.2 92.69-1.9L92.69-1.9Q88.84-4.75 88.84-11.4 88.84-18.05 92.32-21.63 95.79-25.2 100.74-25.2 105.69-25.2 108.19-22L108.19-22Q110.09-19.45 110.09-15.25L110.09-15.25Q110.09-14.25 109.99-13.15L109.99-13.15 92.14-13.15Q92.09-12.75 92.09-12.3L92.09-12.3ZM100.94-22.1L100.94-22.1Q97.84-22.1 95.64-20.23 93.44-18.35 92.59-15.4L92.59-15.4 107.14-15.4Q106.89-20.95 102.84-21.85L102.84-21.85Q101.94-22.1 100.94-22.1ZM128.74-24.5L127.44-21.5Q126.64-21.95 125.74-21.95 124.84-21.95 124.74-21.9L124.74-21.9Q122.84-21.9 120.92-20.53 118.99-19.15 117.64-17.45L117.64-17.45 117.64 0 114.39 0 114.39-25 117.64-25.25 117.64-19.65Q119.49-22 120.79-22.95L120.79-22.95Q123.19-24.75 125.39-24.85L125.39-24.85Q125.69-24.9 126.49-24.9 127.29-24.9 128.74-24.5L128.74-24.5ZM146.24-24.5L145.44-21.7Q143.64-22.3 140.54-22.3 137.44-22.3 135.74-21.2 134.04-20.1 134.04-18.48 134.04-16.85 135.04-16.1 136.04-15.35 137.54-14.83 139.04-14.3 140.81-13.8 142.59-13.3 144.09-12.5L144.09-12.5Q147.59-10.7 147.59-7.15 147.59-3.6 145.16-1.7 142.74 0.2 138.09 0.2L138.09 0.2Q135.74 0.2 133.56-0.28 131.39-0.75 130.24-1.6L130.24-1.6 131.34-4.25Q132.49-3.25 135.99-2.8L135.99-2.8Q137.09-2.65 138.24-2.65L138.24-2.65Q140.84-2.65 142.59-3.73 144.34-4.8 144.34-7L144.34-7Q144.34-8.5 143.34-9.35 142.34-10.2 140.84-10.78 139.34-11.35 137.56-11.8 135.79-12.25 134.29-12.98 132.79-13.7 131.79-14.88 130.79-16.05 130.79-18.05L130.79-18.05Q130.79-21.3 133.29-23.25 135.79-25.2 139.99-25.2L139.99-25.2Q141.04-25.2 142.14-25.08 143.24-24.95 144.14-24.85L144.14-24.85 146.24-24.5ZM162.34-3.6L162.94-0.9Q162.04 0 159.69 0L159.69 0Q156.39 0 155.24-1.7L155.24-1.7Q153.29-3.55 153.29-6.7L153.29-6.7 153.29-22.1 150.49-22.1 150.94-25 153.29-25 153.29-29.95 156.54-30.25 156.54-25 162.34-25 162.34-22.1 156.54-22.1 156.54-5.9Q156.54-3 159.54-3L159.54-3Q160.84-3 162.34-3.6L162.34-3.6ZM167.33-19.9L166.43-22.3Q171.88-25 175.98-25.15L175.98-25.15Q179.23-25.15 181.01-24.33 182.78-23.5 183.88-22.03 184.98-20.55 184.98-17.9L184.98-17.9 184.98 0 181.73 0 181.73-1.9Q174.88 0.2 172.93 0.2L172.93 0.2Q172.83 0.2 172.78 0.2L172.78 0.2Q168.28 0.2 166.63-2.55L166.63-2.55Q166.03-3.55 165.96-4.5 165.88-5.45 165.88-6.1L165.88-6.1Q165.88-7.9 167.28-9.33 168.68-10.75 170.63-11.25L170.63-11.25Q173.93-12.1 181.73-12.75L181.73-12.75 181.73-16.8Q181.73-22.25 176.03-22.25L176.03-22.25Q172.03-22.25 167.33-19.9L167.33-19.9ZM168.93-5.7L168.93-5.7Q168.93-2.1 173.88-2.1L173.88-2.1Q177.83-2.1 181.73-3.8L181.73-3.8 181.73-10.95Q173.93-9.85 172.08-9.25L172.08-9.25Q168.93-8.25 168.93-5.7ZM206.28-16.4L206.03-21.65Q203.98-22.3 201.83-22.3L201.83-22.3Q197.48-22.3 194.86-19.5 192.23-16.7 192.23-11.6L192.23-11.6Q192.23-2.7 200.48-2.7L200.48-2.7Q203.78-2.7 207.28-3.8L207.28-3.8Q207.98-4 208.13-4.1L208.13-4.1 208.93-1.4Q207.18-0.35 202.58 0.1L202.58 0.1Q201.28 0.2 199.83 0.2L199.83 0.2Q195.58 0.2 192.83-1.9L192.83-1.9Q188.98-4.8 188.98-11.45 188.98-18.1 192.56-21.68 196.13-25.25 201.78-25.25L201.78-25.25Q203.58-25.25 205.61-24.78 207.63-24.3 208.73-23.3L208.73-23.3 208.73-16.75 206.28-16.4ZM217.18-37.5L217.18 0 213.93 0 213.93-37.25 217.18-37.5ZM217.18-13.3L227.23-25 231.13-25 220.43-13.3 232.13 0 228.48 0.25 217.18-13.3Z" opacity="1" transform="matrix(1,0,0,1,0,0)" fill="#000000" class="undefined-text-0" data-fill-palette-color="primary" id="text-0"></path></svg></g></svg></g><g transform="matrix(1,0,0,1,0,80.89284429927679)"><svg viewBox="0 0 232.209792 22.31704257925538" height="22.31704257925538" width="232.209792"><g transform="matrix(1,0,0,1,0,0)"><svg width="232.209792" viewBox="4.5 -36.25 484.3399963378906 46.55434799194336" height="22.31704257925538" data-palette-color="#8bc53f"><path d="M28.5-0.2L28.5-0.2Q21.75-0.1 7.25-0.35L7.25-0.35Q6.25-0.35 5.53-1.1 4.8-1.85 4.8-2.85L4.8-2.85Q4.5-3.45 4.5-4.1L4.5-4.1Q4.6-7.5 4.6-13.9 4.6-20.3 4.65-22.6L4.65-22.6Q4.65-23.45 4.6-25.58 4.55-27.7 4.6-29.53 4.65-31.35 4.9-32.95L4.9-32.95Q5-33.65 5.5-34.2 6-34.75 6.7-34.95L6.7-34.95Q7.35-35.55 8.3-35.6L8.3-35.6Q12-35.7 18.88-35.75 25.75-35.8 28.25-35.8L28.25-35.8Q29.3-35.8 30.03-35.08 30.75-34.35 30.75-33.3 30.75-32.25 30.03-31.53 29.3-30.8 28.25-30.8L28.25-30.8Q25.6-30.8 19.33-30.75 13.05-30.7 9.65-30.65L9.65-30.65Q9.5-29.95 9.58-26.83 9.65-23.7 9.65-22.5L9.65-22.5 9.65-20.45Q12.1-20.6 14.88-20.6 17.65-20.6 21.18-20.55 24.7-20.5 26.4-20.5L26.4-20.5Q27.45-20.5 28.18-19.78 28.9-19.05 28.9-18 28.9-16.95 28.18-16.23 27.45-15.5 26.4-15.5L26.4-15.5Q24.65-15.5 21.13-15.55 17.6-15.6 14.85-15.6 12.1-15.6 9.6-15.45L9.6-15.45Q9.6-8.35 9.55-5.3L9.55-5.3Q21.75-5.1 28.4-5.2L28.4-5.2Q29.45-5.2 30.2-4.5 30.95-3.8 30.95-2.75 30.95-1.7 30.25-0.95 29.55-0.2 28.5-0.2L28.5-0.2ZM40.95-2.4L40.95-2.4Q40.9-1.35 40.15-0.65 39.4 0.05 38.35 0 37.3-0.05 36.6-0.8 35.9-1.55 35.95-2.6L35.95-2.6Q36.15-9.25 36.15-12.7 36.15-16.15 36.05-23 35.95-29.85 35.95-33.3L35.95-33.3Q35.95-34.35 36.67-35.08 37.4-35.8 38.45-35.8 39.5-35.8 40.22-35.08 40.95-34.35 40.95-33.3L40.95-33.3Q40.95-29.85 41.05-23.5 41.15-17.15 41.12-11.98 41.1-6.8 40.95-2.4L40.95-2.4ZM59.35 0.25L59.35 0.25Q55.65 0 52.9-1.25 50.15-2.5 48.7-4.4 47.25-6.3 46.6-7.9 45.95-9.5 45.8-11.08 45.65-12.65 45.95-15.15L45.95-15.15Q46.3-17.25 47.42-19.3 48.55-21.35 50.42-22.98 52.3-24.6 54.95-25.48 57.6-26.35 60.6-26L60.6-26Q63.5-25.65 65.55-24.43 67.59-23.2 69.05-21.3L69.05-21.3Q70.3-19.7 70.57-18.9 70.84-18.1 71.07-17.4 71.3-16.7 71.45-16.2 71.59-15.7 71.72-15.18 71.84-14.65 71.9-13.95L71.9-13.95Q71.95-13 71.55-12.2 71.15-11.4 70.34-10.95L70.34-10.95Q69.7-10.7 68.95-10.7L68.95-10.7 60.4-10.55Q51.4-10.5 51.4-10.35L51.4-10.35 51.25-10.35Q51.9-7.8 53.97-6.35 56.05-4.9 59.65-4.65L59.65-4.65Q61.6-4.55 62.9-4.85L62.9-4.85Q64.34-5.25 65-5.58 65.65-5.9 66.59-6.45L66.59-6.45Q67.55-6.8 68.5-6.35 69.45-5.9 69.8-4.95 70.15-4 69.72-3.1 69.3-2.2 68.4-1.7L68.4-1.7Q67.59-1.25 66.75-0.93 65.9-0.6 64.25-0.15 62.6 0.3 59.35 0.25L59.35 0.25ZM51.35-15.25L51.35-15.25Q54.25-15.4 66.4-15.55L66.4-15.55Q65.95-17.05 64.95-18.4L64.95-18.4Q62.95-20.7 60-21.05L60-21.05Q56.9-21.45 54.55-19.73 52.2-18 51.35-15.25L51.35-15.25ZM88.39 0.1L88.39 0.1Q85.54 0.15 82.82-0.9 80.09-1.95 78.34-3.95L78.34-3.95Q76.54-6.05 75.97-8.97 75.39-11.9 75.92-14.55 76.44-17.2 77.69-19.65L77.69-19.65Q78.69-21.5 80.09-22.98 81.49-24.45 83.37-25.48 85.24-26.5 87.37-26.58 89.49-26.65 91.94-25.65L91.94-25.65Q93.24-25.05 94.59-23.75L94.59-23.75 96.19-22.15Q96.99-21.5 97.09-20.45 97.19-19.4 96.52-18.63 95.84-17.85 94.79-17.75 93.74-17.65 92.99-18.35L92.99-18.35Q92.54-18.7 91.94-19.3L91.94-19.3 91.09-20.15Q90.39-20.85 89.94-21.05L89.94-21.05Q87.69-22.05 85.64-21.03 83.59-20 82.14-17.3L82.14-17.3Q80.64-14.5 80.67-11.7 80.69-8.9 82.14-7.25L82.14-7.25Q83.04-6.2 84.74-5.55 86.44-4.9 88.34-4.9L88.34-4.9Q92.19-5 93.29-7.65L93.29-7.65 93.24-7.9 93.24-9.35Q93.29-10.4 94.07-11.08 94.84-11.75 95.89-11.7 96.94-11.65 97.62-10.88 98.29-10.1 98.24-9.05L98.24-9.05 98.24-7.95Q98.29-6.7 97.89-5.75L97.89-5.75Q96.74-2.85 94.12-1.4 91.49 0.05 88.39 0.1L88.39 0.1ZM111.54-0.15L111.54-0.15Q111.24-0.25 110.32-0.45 109.39-0.65 108.72-0.9 108.04-1.15 107.17-1.63 106.29-2.1 105.59-2.93 104.89-3.75 104.39-4.9L104.39-4.9Q103.84-6.25 103.69-10.2L103.69-10.2Q103.54-13.25 103.64-18.05L103.64-18.05Q103.64-18.95 103.69-21.05L103.69-21.05 103.29-21Q102.24-20.9 101.44-21.55 100.64-22.2 100.52-23.23 100.39-24.25 101.04-25.05 101.69-25.85 102.69-26L102.69-26 103.84-26.1Q103.89-28.75 103.99-31.45L103.99-31.45Q104.04-32.5 104.79-33.2 105.54-33.9 106.59-33.85 107.64-33.8 108.34-33.05 109.04-32.3 108.99-31.25L108.99-31.25 108.84-26.5 110.49-26.6Q111.54-26.65 112.32-26 113.09-25.35 113.17-24.3 113.24-23.25 112.59-22.48 111.94-21.7 110.89-21.6L110.89-21.6 108.69-21.5Q108.64-19.1 108.64-18L108.64-18Q108.54-13.3 108.69-10.35L108.69-10.35Q108.79-7.35 108.99-6.9 109.19-6.45 109.29-6.28 109.39-6.1 109.67-5.93 109.94-5.75 110.24-5.7 110.54-5.65 111.37-5.43 112.19-5.2 113.14-4.85L113.14-4.85Q114.09-4.55 114.57-3.63 115.04-2.7 114.72-1.73 114.39-0.75 113.47-0.28 112.54 0.2 111.54-0.15L111.54-0.15ZM121.24 0L121.24 0Q120.24 0 119.49-0.68 118.74-1.35 118.74-2.5L118.74-2.5 118.64-12.7Q118.59-16.15 118.59-21.3L118.59-21.3 118.59-24.25Q118.59-25.4 119.29-26.05 119.99-26.7 120.99-26.7L120.99-26.7Q122.04-26.7 122.81-26.03 123.59-25.35 123.59-24.15L123.59-24.15 123.59-22.65Q124.14-23.85 125.64-24.7L125.64-24.7Q127.69-25.95 130.14-25.95L130.14-25.95Q131.99-25.95 132.99-25.35 133.99-24.75 133.99-23.2L133.99-23.2Q133.99-22.2 133.39-21.53 132.79-20.85 131.64-20.85L131.64-20.85Q127.44-20.85 125.84-19.7L125.84-19.7Q124.94-19.1 124.26-18.25 123.59-17.4 123.59-16.6L123.59-16.6 123.69-10.35 123.74-2.5Q123.74-1.35 122.99-0.68 122.24 0 121.24 0L121.24 0ZM136.69-2.4L136.69-2.4Q136.59-6.15 136.71-13.9 136.84-21.65 136.84-24.05L136.84-24.05Q136.84-25.1 137.56-25.83 138.29-26.55 139.34-26.55 140.39-26.55 141.11-25.83 141.84-25.1 141.84-24.05L141.84-24.05Q141.84-21.65 141.71-13.95 141.59-6.25 141.69-2.5L141.69-2.5Q141.69-1.45 140.99-0.7 140.29 0.05 139.24 0.05 138.19 0.05 137.44-0.65 136.69-1.35 136.69-2.4L136.69-2.4ZM141.34-35.2L141.34-35.2Q142.19-34.35 142.19-33.1 142.19-31.85 141.34-31 140.49-30.15 139.24-30.15 137.99-30.15 137.14-31 136.29-31.85 136.29-33.1 136.29-34.35 137.14-35.2 137.99-36.05 139.26-36.08 140.54-36.1 141.34-35.2L141.34-35.2ZM151.73 0L151.73 0Q150.83 0 150.18-0.55 149.53-1.1 149.43-2.15L149.43-2.15Q148.63-8.7 148.53-17.15L148.53-17.15 148.48-20.9 148.08-20.9Q146.83-20.9 146.16-21.63 145.48-22.35 145.48-23.45L145.48-23.45Q145.48-24.45 146.08-25.23 146.68-26 147.78-26L147.78-26 148.68-26Q148.68-28.95 149.56-31.68 150.43-34.4 152.13-35.35L152.13-35.35Q153.83-36.25 155.33-36.25L155.33-36.25Q157.43-36.25 158.68-35.5 159.93-34.75 159.93-33.35L159.93-33.35Q159.93-32.2 159.38-31.5 158.83-30.8 157.83-30.8L157.83-30.8Q157.53-30.8 157.26-30.85 156.98-30.9 156.73-30.95L156.73-30.95Q156.03-31.15 155.28-31.15L155.28-31.15Q154.43-31.15 154.13-29.78 153.83-28.4 153.68-26L153.68-26 155.83-26Q156.98-26 157.66-25.25 158.33-24.5 158.33-23.5L158.33-23.5Q158.33-22.5 157.66-21.75 156.98-21 155.83-21L155.83-21 153.48-21 153.53-17.2Q153.98-6.1 154.33-3.05L154.33-3.05Q154.48-1.4 153.68-0.7 152.88 0 151.73 0L151.73 0ZM163.18 10.05L163.18 10.05Q162.13 10.15 161.33 9.47 160.53 8.8 160.43 7.78 160.33 6.75 161 5.95 161.68 5.15 162.68 5.05L162.68 5.05Q163.18 5 163.88 4.95 164.58 4.9 164.81 4.88 165.03 4.85 165.38 4.78 165.73 4.7 165.93 4.55L165.93 4.55 166.43 4.25Q167.63 3.65 168.58 0.9L168.58 0.9Q168.88 0.05 169.18-0.3L169.18-0.3Q168.83-0.7 168.63-1.25L168.63-1.25Q167.73-5.1 164.93-12.65L164.93-12.65Q162.43-19.3 161.23-23.3L161.23-23.3Q160.93-24.3 161.43-25.2 161.93-26.1 162.93-26.4 163.93-26.7 164.83-26.2 165.73-25.7 166.03-24.7L166.03-24.7Q166.98-21.5 169.63-14.4L169.63-14.4 171.53-9.2Q175.03-19.9 177.93-25.25L177.93-25.25Q178.43-26.15 179.43-26.45 180.43-26.75 181.33-26.25 182.23-25.75 182.53-24.75 182.83-23.75 182.33-22.85L182.33-22.85Q181.03-20.45 179.63-17 178.23-13.55 177.43-11.2 176.63-8.85 175.33-4.65L175.33-4.65Q175.03-3.65 174.93-3.25L174.93-3.25Q174.68-2.6 174.23-0.65L174.23-0.65Q173.68 1.2 173.33 2.35L173.33 2.35Q171.93 6.25 169.53 8.15L169.53 8.15Q168.83 8.7 168.13 9.08 167.43 9.45 166.66 9.63 165.88 9.8 165.43 9.88 164.98 9.95 164.16 9.98 163.33 10 163.18 10.05L163.18 10.05ZM186.43-2.4L186.43-2.4Q186.33-6.15 186.45-13.9 186.58-21.65 186.58-24.05L186.58-24.05Q186.58-25.1 187.3-25.83 188.03-26.55 189.08-26.55 190.13-26.55 190.85-25.83 191.58-25.1 191.58-24.05L191.58-24.05Q191.58-21.65 191.45-13.95 191.33-6.25 191.43-2.5L191.43-2.5Q191.43-1.45 190.73-0.7 190.03 0.05 188.98 0.05 187.93 0.05 187.18-0.65 186.43-1.35 186.43-2.4L186.43-2.4ZM191.08-35.2L191.08-35.2Q191.93-34.35 191.93-33.1 191.93-31.85 191.08-31 190.23-30.15 188.98-30.15 187.73-30.15 186.88-31 186.03-31.85 186.03-33.1 186.03-34.35 186.88-35.2 187.73-36.05 189-36.08 190.28-36.1 191.08-35.2L191.08-35.2ZM200.72 0L200.72 0Q199.72 0 198.97-0.68 198.22-1.35 198.22-2.5L198.22-2.5Q198.22-6.45 198.17-9.3L198.17-9.3Q198.07-17.8 198.07-24.05L198.07-24.05Q198.07-25.2 198.77-25.85 199.47-26.5 200.47-26.5L200.47-26.5Q201.52-26.5 202.3-25.83 203.07-25.15 203.07-23.95L203.07-23.95 203.07-22.4Q206.17-26.45 211.22-26.45L211.22-26.45Q215.57-26.45 217.9-23.4 220.22-20.35 220.22-15.2L220.22-15.2Q220.22-9.5 220.07-7.7L220.07-7.7 219.82-4.35 219.67-2.2Q219.57-1.2 218.88-0.6 218.17 0 217.22 0L217.22 0Q216.22 0 215.47-0.68 214.72-1.35 214.72-2.5L214.72-2.5Q214.72-3.3 215.07-8.05L215.07-8.05Q215.32-11.3 215.32-13.15L215.32-13.15Q215.32-17.4 214.13-19.43 212.92-21.45 210.42-21.45L210.42-21.45Q208.63-21.45 206.7-20.35 204.77-19.25 203.07-17.55L203.07-17.55 203.17-10.45 203.22-2.5Q203.22-1.35 202.47-0.68 201.72 0 200.72 0L200.72 0ZM237.62 10.25L237.62 10.25Q234.72 10.5 232.05 9.6 229.37 8.7 227.62 6.45L227.62 6.45Q226.97 5.6 226.55 4.35 226.12 3.1 226.62 2.18 227.12 1.25 228.1 0.95 229.07 0.65 230 1.15 230.92 1.65 231.22 2.6L231.22 2.6Q231.32 3 231.47 3.68 231.62 4.35 232.57 5L232.57 5Q234.82 5.8 237.52 5.7L237.52 5.7Q239.97 5.6 241.27 4.67 242.57 3.75 242.92 2.55L242.92 2.55Q243.42 0.85 243.72-2.85L243.72-2.85Q241.82-0.85 237.97-0.45L237.97-0.45Q234.67-0.3 232.05-1.38 229.42-2.45 227.9-4.45 226.37-6.45 225.67-8.9L225.67-8.9Q224.97-11.25 225.17-14.8L225.17-14.8Q225.57-20.3 229.47-23.65L229.47-23.65Q233.82-27.1 239.97-26.1L239.97-26.1Q242.22-25.35 243.52-24.3L243.52-24.3Q243.57-26.3 245.42-26.75L245.42-26.75Q246.62-26.85 247.35-26.2 248.07-25.55 248.22-24.55L248.22-24.55Q248.77-18.45 248.87-9.65L248.87-9.65Q248.92-4.65 248.57-1.3L248.57-1.3Q248.17 3.7 246.22 6.18 244.27 8.65 242.32 9.33 240.37 10 237.62 10.25L237.62 10.25ZM237.62-5.55L237.62-5.55Q239.47-5.5 240.47-6L240.47-6Q243.37-6.9 243.82-10.75L243.82-10.75Q244.07-13.7 243.57-16.4L243.57-16.4Q243.22-18.1 241.52-19.35L241.52-19.35Q240.52-20.15 238.97-20.4L238.97-20.4Q234.97-21.1 232.82-19.2L232.82-19.2Q230.77-17.55 230.47-14.35L230.47-14.35Q230.22-10.15 232.12-7.8L232.12-7.8Q234.07-5.5 237.62-5.55L237.62-5.55ZM276.92-0.15L276.92-0.15Q276.62-0.25 275.69-0.45 274.77-0.65 274.09-0.9 273.42-1.15 272.54-1.63 271.67-2.1 270.97-2.93 270.27-3.75 269.77-4.9L269.77-4.9Q269.22-6.25 269.07-10.2L269.07-10.2Q268.92-13.25 269.02-18.05L269.02-18.05Q269.02-18.95 269.07-21.05L269.07-21.05 268.67-21Q267.62-20.9 266.82-21.55 266.02-22.2 265.89-23.23 265.77-24.25 266.42-25.05 267.07-25.85 268.07-26L268.07-26 269.22-26.1Q269.27-28.75 269.37-31.45L269.37-31.45Q269.42-32.5 270.17-33.2 270.92-33.9 271.97-33.85 273.02-33.8 273.72-33.05 274.42-32.3 274.37-31.25L274.37-31.25 274.22-26.5 275.87-26.6Q276.92-26.65 277.69-26 278.47-25.35 278.54-24.3 278.62-23.25 277.97-22.48 277.32-21.7 276.27-21.6L276.27-21.6 274.07-21.5Q274.02-19.1 274.02-18L274.02-18Q273.92-13.3 274.07-10.35L274.07-10.35Q274.17-7.35 274.37-6.9 274.57-6.45 274.67-6.28 274.77-6.1 275.04-5.93 275.32-5.75 275.62-5.7 275.92-5.65 276.74-5.43 277.57-5.2 278.52-4.85L278.52-4.85Q279.47-4.55 279.94-3.63 280.42-2.7 280.09-1.73 279.77-0.75 278.84-0.28 277.92 0.2 276.92-0.15L276.92-0.15ZM305.22-2.4L305.22-2.4Q305.17-1.35 304.42-0.65 303.67 0.05 302.64 0.03 301.62 0 300.92-0.75 300.22-1.5 300.22-2.5L300.22-2.5Q300.22-2.55 300.52-7.2L300.52-7.2Q300.82-12.3 300.62-14.95L300.62-14.95Q300.17-21.2 296.02-21.5L296.02-21.5Q293.82-21.65 292.39-20.83 290.97-20 289.62-17.95L289.62-17.95Q289.52-17.8 289.22-17.25L289.22-17.25Q289.57-6.45 289.57-2.45L289.57-2.45Q289.57-1.4 288.84-0.68 288.12 0.05 287.07 0.05 286.02 0.05 285.29-0.68 284.57-1.4 284.57-2.45L284.57-2.45Q284.57-4.75 284.17-18L284.17-18Q283.87-27.95 284.07-33.8L284.07-33.8Q284.12-34.8 284.87-35.52 285.62-36.25 286.64-36.2 287.67-36.15 288.39-35.4 289.12-34.65 289.07-33.6L289.07-33.6Q289.02-32.25 289.02-23.15L289.02-23.15Q292.22-26.85 296.52-26.5L296.52-26.5Q304.82-25.8 305.62-15.35L305.62-15.35Q305.77-12.45 305.69-10.3 305.62-8.15 305.42-5.55 305.22-2.95 305.22-2.4L305.22-2.4ZM323.96 0.25L323.96 0.25Q320.26 0 317.51-1.25 314.76-2.5 313.31-4.4 311.86-6.3 311.21-7.9 310.56-9.5 310.41-11.08 310.26-12.65 310.56-15.15L310.56-15.15Q310.91-17.25 312.04-19.3 313.16-21.35 315.04-22.98 316.91-24.6 319.56-25.48 322.21-26.35 325.21-26L325.21-26Q328.11-25.65 330.16-24.43 332.21-23.2 333.66-21.3L333.66-21.3Q334.91-19.7 335.19-18.9 335.46-18.1 335.69-17.4 335.91-16.7 336.06-16.2 336.21-15.7 336.34-15.18 336.46-14.65 336.51-13.95L336.51-13.95Q336.56-13 336.16-12.2 335.76-11.4 334.96-10.95L334.96-10.95Q334.31-10.7 333.56-10.7L333.56-10.7 325.01-10.55Q316.01-10.5 316.01-10.35L316.01-10.35 315.86-10.35Q316.51-7.8 318.59-6.35 320.66-4.9 324.26-4.65L324.26-4.65Q326.21-4.55 327.51-4.85L327.51-4.85Q328.96-5.25 329.61-5.58 330.26-5.9 331.21-6.45L331.21-6.45Q332.16-6.8 333.11-6.35 334.06-5.9 334.41-4.95 334.76-4 334.34-3.1 333.91-2.2 333.01-1.7L333.01-1.7Q332.21-1.25 331.36-0.93 330.51-0.6 328.86-0.15 327.21 0.3 323.96 0.25L323.96 0.25ZM315.96-15.25L315.96-15.25Q318.86-15.4 331.01-15.55L331.01-15.55Q330.56-17.05 329.56-18.4L329.56-18.4Q327.56-20.7 324.61-21.05L324.61-21.05Q321.51-21.45 319.16-19.73 316.81-18 315.96-15.25L315.96-15.25ZM357.41 0L357.41 0Q356.41 0 355.66-0.68 354.91-1.35 354.91-2.5L354.91-2.5Q354.91-6.45 354.86-9.3L354.86-9.3Q354.76-17.8 354.76-24.05L354.76-24.05Q354.76-25.2 355.46-25.85 356.16-26.5 357.16-26.5L357.16-26.5Q358.21-26.5 358.98-25.83 359.76-25.15 359.76-23.95L359.76-23.95 359.76-22.4Q362.86-26.45 367.91-26.45L367.91-26.45Q372.26-26.45 374.58-23.4 376.91-20.35 376.91-15.2L376.91-15.2Q376.91-9.5 376.76-7.7L376.76-7.7 376.51-4.35 376.36-2.2Q376.26-1.2 375.56-0.6 374.86 0 373.91 0L373.91 0Q372.91 0 372.16-0.68 371.41-1.35 371.41-2.5L371.41-2.5Q371.41-3.3 371.76-8.05L371.76-8.05Q372.01-11.3 372.01-13.15L372.01-13.15Q372.01-17.4 370.81-19.43 369.61-21.45 367.11-21.45L367.11-21.45Q365.31-21.45 363.38-20.35 361.46-19.25 359.76-17.55L359.76-17.55 359.86-10.45 359.91-2.5Q359.91-1.35 359.16-0.68 358.41 0 357.41 0L357.41 0ZM396.85-0.8L396.85-0.8Q395.06-0.1 392.78 0 390.5 0.1 388.56-0.53 386.6-1.15 385.1-2.45L385.1-2.45Q382.5-4.6 381.75-7.8 381-11 381.7-13.55 382.4-16.1 383.83-18.53 385.25-20.95 386.93-22.63 388.6-24.3 390.81-25.45 393-26.6 395.4-26.58 397.81-26.55 400.45-25.25L400.45-25.25Q400.85-25.05 401.33-24.65 401.81-24.25 402.15-23.95L402.15-23.95 402.81-23.3Q403.1-23 403.1-22.95L403.1-22.95Q403.9-22.25 403.95-21.15L403.95-21.15Q404.6-18.15 404.81-14.85 405-11.55 404.93-8.65 404.85-5.75 405-2.5L405-2.5Q405.06-1.5 404.35-0.75 403.65 0 402.6 0.05 401.56 0.1 400.81-0.6 400.06-1.3 400-2.3L400-2.3 400-3.05Q398.5-1.5 396.85-0.8L396.85-0.8ZM394.6-5.3L394.6-5.3Q395.35-5.5 395.81-5.7 396.25-5.9 396.93-6.3 397.6-6.7 398.35-7.3 399.1-7.9 399.7-8.8L399.7-8.8Q399.81-8.9 399.95-9L399.95-9Q399.95-15.75 399.1-19.85L399.1-19.85Q398.95-20.05 398.78-20.23 398.6-20.4 398.53-20.5 398.45-20.6 398.33-20.68 398.2-20.75 398.06-20.85L398.06-20.85Q395.65-22.15 393-20.93 390.35-19.7 388.35-16.35L388.35-16.35Q386.35-12.95 386.38-10.43 386.4-7.9 388.31-6.25L388.31-6.25Q389.45-5.3 391.15-5.05 392.85-4.8 394.6-5.3L394.6-5.3ZM419.55-0.15L419.55-0.15Q419.25-0.25 418.33-0.45 417.4-0.65 416.73-0.9 416.05-1.15 415.18-1.63 414.3-2.1 413.6-2.93 412.9-3.75 412.4-4.9L412.4-4.9Q411.85-6.25 411.7-10.2L411.7-10.2Q411.55-13.25 411.65-18.05L411.65-18.05Q411.65-18.95 411.7-21.05L411.7-21.05 411.3-21Q410.25-20.9 409.45-21.55 408.65-22.2 408.53-23.23 408.4-24.25 409.05-25.05 409.7-25.85 410.7-26L410.7-26 411.85-26.1Q411.9-28.75 412-31.45L412-31.45Q412.05-32.5 412.8-33.2 413.55-33.9 414.6-33.85 415.65-33.8 416.35-33.05 417.05-32.3 417-31.25L417-31.25 416.85-26.5 418.5-26.6Q419.55-26.65 420.33-26 421.1-25.35 421.18-24.3 421.25-23.25 420.6-22.48 419.95-21.7 418.9-21.6L418.9-21.6 416.7-21.5Q416.65-19.1 416.65-18L416.65-18Q416.55-13.3 416.7-10.35L416.7-10.35Q416.8-7.35 417-6.9 417.2-6.45 417.3-6.28 417.4-6.1 417.68-5.93 417.95-5.75 418.25-5.7 418.55-5.65 419.38-5.43 420.2-5.2 421.15-4.85L421.15-4.85Q422.1-4.55 422.58-3.63 423.05-2.7 422.73-1.73 422.4-0.75 421.48-0.28 420.55 0.2 419.55-0.15L419.55-0.15ZM426.65-2.4L426.65-2.4Q426.55-6.15 426.68-13.9 426.8-21.65 426.8-24.05L426.8-24.05Q426.8-25.1 427.53-25.83 428.25-26.55 429.3-26.55 430.35-26.55 431.08-25.83 431.8-25.1 431.8-24.05L431.8-24.05Q431.8-21.65 431.68-13.95 431.55-6.25 431.65-2.5L431.65-2.5Q431.65-1.45 430.95-0.7 430.25 0.05 429.2 0.05 428.15 0.05 427.4-0.65 426.65-1.35 426.65-2.4L426.65-2.4ZM431.3-35.2L431.3-35.2Q432.15-34.35 432.15-33.1 432.15-31.85 431.3-31 430.45-30.15 429.2-30.15 427.95-30.15 427.1-31 426.25-31.85 426.25-33.1 426.25-34.35 427.1-35.2 427.95-36.05 429.23-36.08 430.5-36.1 431.3-35.2L431.3-35.2ZM451.9-0.35L451.9-0.35Q445.3 1.25 441.35-3L441.35-3Q438.2-6.25 437.45-11.35L437.45-11.35Q436.9-15.35 438.4-18.95L438.4-18.95Q440.2-23.55 444.1-25.75L444.1-25.75Q444.9-26.2 446.1-26.4L446.1-26.4Q446.15-26.4 446.8-26.45L446.8-26.45Q447.05-26.5 447.2-26.55L447.2-26.55Q447.95-26.7 448.7-26.4L448.7-26.4Q448.9-26.4 449.65-26.38 450.4-26.35 450.65-26.33 450.9-26.3 451.52-26.23 452.15-26.15 452.55-26.05L452.55-26.05 453.5-25.7Q454.1-25.5 454.65-25.2 455.2-24.9 455.85-24.5L455.85-24.5Q459.1-22.3 460.35-18.32 461.6-14.35 461-11.9L461-11.9Q460.55-9.2 459.4-6.88 458.25-4.55 456.22-2.75 454.2-0.95 451.9-0.35L451.9-0.35ZM450.35-5.55L450.35-5.55Q452.5-5.85 454.02-7.78 455.55-9.7 456.02-11.85 456.5-14 455.67-16.57 454.85-19.15 453.05-20.3L453.05-20.3Q452.5-20.7 452.15-20.88 451.8-21.05 451.32-21.18 450.85-21.3 450.57-21.3 450.3-21.3 449.4-21.35 448.5-21.4 447.8-21.45L447.8-21.45Q447.65-21.45 447.45-21.5L447.45-21.5Q446.9-21.45 446.85-21.45L446.85-21.45 446.5-21.35Q444.3-20.15 443.12-17.53 441.95-14.9 442.45-12.1L442.45-12.1Q443-8.7 444.9-6.95L444.9-6.95Q446.95-5.05 450.35-5.55L450.35-5.55ZM469.34 0L469.34 0Q468.34 0 467.59-0.68 466.84-1.35 466.84-2.5L466.84-2.5Q466.84-6.45 466.8-9.3L466.8-9.3Q466.69-17.8 466.69-24.05L466.69-24.05Q466.69-25.2 467.39-25.85 468.09-26.5 469.09-26.5L469.09-26.5Q470.14-26.5 470.92-25.83 471.69-25.15 471.69-23.95L471.69-23.95 471.69-22.4Q474.8-26.45 479.84-26.45L479.84-26.45Q484.19-26.45 486.52-23.4 488.84-20.35 488.84-15.2L488.84-15.2Q488.84-9.5 488.69-7.7L488.69-7.7 488.44-4.35 488.3-2.2Q488.19-1.2 487.5-0.6 486.8 0 485.84 0L485.84 0Q484.84 0 484.09-0.68 483.34-1.35 483.34-2.5L483.34-2.5Q483.34-3.3 483.69-8.05L483.69-8.05Q483.94-11.3 483.94-13.15L483.94-13.15Q483.94-17.4 482.75-19.43 481.55-21.45 479.05-21.45L479.05-21.45Q477.25-21.45 475.32-20.35 473.39-19.25 471.69-17.55L471.69-17.55 471.8-10.45 471.84-2.5Q471.84-1.35 471.09-0.68 470.34 0 469.34 0L469.34 0Z" opacity="1" transform="matrix(1,0,0,1,0,0)" fill="#000000" class="undefined-text-1" data-fill-palette-color="secondary" id="text-1"></path></svg></g></svg></g></svg></g></svg></g><g><svg viewBox="0 0 158.354913684214 142.63606366613146" height="142.63606366613146" width="158.354913684214"><g><svg xmlns="http://www.w3.org/2000/svg" xmlns:xlink="http://www.w3.org/1999/xlink" version="1.1" x="0" y="0" viewBox="0.44499969482421875 5.363999843597412 99.11000061035156 89.27200317382812" style="enable-background:new 0 0 100 100;" xml:space="preserve" height="142.63606366613146" width="158.354913684214" class="icon-icon-0" data-fill-palette-color="accent" id="icon-0"><g fill="#5d9943" data-fill-palette-color="accent"><path d="M15.57 64.387c-8.354 0-15.125 6.771-15.125 15.125 0 8.353 6.771 15.124 15.125 15.124 8.353 0 15.124-6.771 15.124-15.124C30.694 71.158 23.923 64.387 15.57 64.387zM15.57 87.789c-4.565 0-8.278-3.713-8.278-8.277s3.713-8.278 8.278-8.278c4.564 0 8.277 3.714 8.277 8.278S20.135 87.789 15.57 87.789z" fill="#000000" data-fill-palette-color="accent"></path><path d="M50 64.387c-8.353 0-15.125 6.771-15.125 15.125 0 8.353 6.772 15.124 15.125 15.124 8.354 0 15.125-6.771 15.125-15.124C65.125 71.158 58.354 64.387 50 64.387zM50 87.789c-4.564 0-8.278-3.713-8.278-8.277s3.714-8.278 8.278-8.278c4.565 0 8.277 3.714 8.277 8.278S54.565 87.789 50 87.789z" fill="#000000" data-fill-palette-color="accent"></path><path d="M84.431 64.387c-8.354 0-15.125 6.771-15.125 15.125 0 8.353 6.771 15.124 15.125 15.124 8.352 0 15.124-6.771 15.124-15.124C99.555 71.158 92.782 64.387 84.431 64.387zM84.431 87.789c-4.564 0-8.278-3.713-8.278-8.277s3.714-8.278 8.278-8.278 8.277 3.714 8.277 8.278S88.995 87.789 84.431 87.789z" fill="#000000" data-fill-palette-color="accent"></path><path d="M32.785 34.875c-8.354 0-15.125 6.772-15.125 15.125 0 8.354 6.771 15.124 15.125 15.124S47.909 58.354 47.909 50C47.909 41.647 41.139 34.875 32.785 34.875zM32.785 58.277c-4.564 0-8.278-3.713-8.278-8.277s3.714-8.278 8.278-8.278 8.277 3.713 8.277 8.278S37.35 58.277 32.785 58.277z" fill="#000000" data-fill-palette-color="accent"></path><path d="M67.215 34.875c-8.353 0-15.125 6.772-15.125 15.125 0 8.354 6.772 15.124 15.125 15.124 8.354 0 15.125-6.771 15.125-15.124C82.34 41.647 75.568 34.875 67.215 34.875zM67.215 58.277c-4.564 0-8.277-3.713-8.277-8.277s3.713-8.278 8.277-8.278 8.278 3.713 8.278 8.278S71.779 58.277 67.215 58.277z" fill="#000000" data-fill-palette-color="accent"></path><path d="M50 5.364c-8.353 0-15.125 6.771-15.125 15.124S41.647 35.613 50 35.613c8.354 0 15.125-6.772 15.125-15.125S58.354 5.364 50 5.364zM50 28.767c-4.564 0-8.278-3.714-8.278-8.279S45.436 12.21 50 12.21c4.565 0 8.277 3.713 8.277 8.278S54.565 28.767 50 28.767z" fill="#000000" data-fill-palette-color="accent"></path></g></svg></g></svg></g></svg></g><defs></defs></svg><rect width="395.52" height="99.09184691924837" fill="none" stroke="none" visibility="hidden"></rect></g></svg></g></svg>